<svg width="225" height="214" viewBox="0 0 225 214" fill="none" xmlns="http://www.w3.org/2000/svg">
<path d="M111.335 0.550701C112.445 0.458376 113.626 0.566749 114.717 0.780349C114.933 0.822849 115.147 0.870668 115.36 0.923801C115.574 0.976918 115.785 1.03527 115.996 1.09887C116.206 1.16247 116.414 1.23124 116.621 1.30518C116.828 1.37911 117.033 1.45811 117.236 1.54217C117.439 1.62626 117.64 1.71531 117.838 1.80933C118.037 1.90334 118.233 2.00221 118.427 2.10593C118.62 2.20964 118.811 2.31809 118.999 2.43128C119.188 2.54446 119.373 2.66223 119.556 2.78458C119.738 2.90693 119.918 3.03372 120.094 3.16495C120.27 3.29618 120.443 3.43169 120.612 3.57148C120.782 3.71128 120.947 3.85518 121.11 4.00318C121.272 4.15118 121.431 4.3031 121.586 4.45895C121.74 4.61482 121.891 4.77441 122.038 4.93772C122.185 5.10102 122.328 5.26792 122.466 5.43842C122.605 5.60876 122.74 5.78242 122.87 5.95942C123 6.13642 123.125 6.31659 123.246 6.49993C125.738 10.2909 126.224 15.4407 124.306 19.5767C123.442 21.4414 122.234 23.1444 121.634 25.1289C120.818 27.8307 120.917 30.7889 120.338 33.5604L119.388 34.1187C119.164 36.0764 119.901 38.8947 118.546 40.5044C117.72 41.4867 116.554 41.5384 115.372 41.6487C114.134 42.6444 112.829 43.4329 111.205 43.5689C109.488 43.7127 108.072 42.5579 106.399 42.4174C104.654 42.2709 102.822 42.4002 101.067 42.4174C98.5547 42.4419 96.0417 42.4024 93.53 42.4819C93.4457 46.8582 93.464 51.2794 93.5497 55.6557L86.537 55.6579C86.2055 58.1549 86.4202 61.0057 86.5082 63.5319C89.7207 63.6717 92.9632 63.5382 96.182 63.5984C96.0885 61.5722 95.6977 52.5547 96.7075 51.2877C97.015 50.9022 97.5942 50.7639 98.059 50.7229C99.3325 50.6099 100.703 50.7427 101.985 50.7447C103.8 50.7472 105.783 50.5514 107.579 50.7982C108.137 50.8747 108.687 50.9674 109.122 51.3444C109.823 52.9079 109.489 61.3962 109.5 63.6234C110.934 63.6344 115.458 63.2057 116.352 64.1247C117.429 65.2297 117.028 67.9909 116.989 69.4307C118.338 70.4144 119.812 71.3822 120.82 72.7362C122.464 74.9444 122.43 77.6814 122.068 80.2839C123.125 81.0169 123.315 81.5624 123.548 82.7847C123.535 82.8269 123.522 82.8694 123.509 82.9114L123.44 83.1214C123.316 83.5067 123.204 83.8709 122.977 84.2109C122.234 85.3224 121.088 85.6842 119.838 85.9169C118.794 87.7339 117.897 88.9092 116.204 90.1712C116.211 91.6827 116.226 93.1941 116.249 94.7054C118.213 94.6982 120.1 94.7272 121.962 95.4232C126.975 97.2962 130.879 106.423 132.986 111.092C136.388 106.533 140.495 102.307 143.503 97.4862C142.327 97.5242 140.852 97.7059 139.707 97.3802C139.387 97.2887 139.081 97.1554 138.926 96.8434C138.256 95.4984 138.466 85.5074 139.066 83.8989C141.353 83.5029 149.941 83.3069 151.653 84.3344C152.323 85.6934 151.747 92.6077 151.8 94.6552C152.131 94.8194 152.438 94.9974 152.75 95.1972C152.994 95.5447 152.998 95.8477 153.014 96.2577C153.042 96.9852 153.699 97.5872 153.652 98.1937C153.612 98.7087 152.859 99.2147 152.49 99.5307C152.556 100.326 152.719 101.16 152.172 101.827C150.719 103.598 148.314 104.47 146.688 106.092C145.378 107.399 144.305 109.004 143.202 110.484C141.561 112.696 139.908 114.9 138.244 117.095C143.802 117.18 149.36 117.047 154.919 117.119L155.486 119.878C155.538 119.936 155.59 119.995 155.643 120.053C156.408 120.883 156.562 121.956 156.838 123.019C161.452 123.102 166.073 122.936 170.684 123.037C170.9 122.392 171.154 121.762 171.445 121.147C171.736 120.532 172.062 119.937 172.424 119.36C174.828 115.548 178.149 113.557 182.475 112.565C182.491 112.046 182.58 111.542 182.66 111.03C181.342 110.629 180.14 110.064 179.144 109.091C176.795 106.796 177.007 103.408 177.016 100.394L176.997 95.7719C176.344 94.7389 175.772 93.7429 175.692 92.4857C175.606 91.1177 176.145 89.8237 177.071 88.8304C178.661 87.1252 180.645 86.6537 182.87 86.6114C182.985 83.7587 182.951 80.8952 182.962 78.0402C181.467 77.9989 177.753 78.4292 176.578 77.7449C176.199 77.5244 176.065 76.6299 175.992 76.2139C175.655 74.3024 175.404 66.8939 176.445 65.4254C177.602 64.7902 179.555 65.0082 180.835 65.0319C180.408 63.6224 179.128 60.9359 179.354 59.5762L179.527 59.5304C180.66 60.4049 181.361 63.6137 181.871 65.0587C183.965 64.9477 186.506 64.6564 188.504 65.3907C188.931 62.7269 188.311 53.9292 189.021 52.5622L189.179 52.5249L189.403 52.7394C189.919 54.0787 189.523 66.1152 189.514 68.4079C189.506 70.6764 189.606 72.9612 189.547 75.2269C189.527 76.0032 189.596 76.9564 188.961 77.4954C187.851 78.4377 185.128 78.0489 183.744 78.0092C183.721 80.878 183.725 83.7468 183.756 86.6157C185.717 86.5927 188.264 86.2749 190.065 87.1607C191.358 87.7967 191.82 88.8244 192.288 90.1004C193.169 90.3549 193.99 90.6889 194.691 91.2967C198.058 94.2149 195.489 101.016 194.038 104.312C193.435 105.683 192.425 107.231 192.126 108.691C191.905 109.772 192.19 111.243 192.282 112.358C195.735 112.848 198.65 113.628 201.217 116.122C205.544 120.327 205.426 125.458 205.526 131.062C206.542 131.061 207.582 131.016 208.595 131.096C210.104 131.215 211.507 131.713 212.487 132.915C213.355 133.981 213.743 135.324 213.645 136.688C213.543 138.109 212.99 139.592 212.617 140.964L211.144 146.592C209.969 151.028 208.822 155.471 207.704 159.921C206.586 164.327 205.379 168.899 204.815 173.41C202.68 173.076 200.438 173.517 198.318 173.802C200.054 176.952 200.854 180.489 201.843 183.918C202.885 187.532 203.969 191.176 205.238 194.718L207.002 194.615C204.649 184.706 205.288 172.217 210.005 163.077C211.367 160.461 213.877 156.781 216.828 155.782C217.824 155.445 218.88 155.473 219.82 155.966C221.958 157.086 223.01 160.003 223.632 162.177C226.991 173.918 223.451 184.485 217.774 194.711C219.305 194.702 220.84 194.669 222.369 194.765C222.127 197.58 221.111 200.394 220.431 203.133C219.656 206.252 219.048 209.425 218.18 212.519C219.746 212.482 221.665 212.308 223.131 212.921L223.12 213.091C222.719 213.273 222.392 213.346 221.951 213.359C220.174 213.409 218.378 213.287 216.6 213.265C213.509 213.243 210.418 213.238 207.328 213.252L164.3 213.262L55.9207 213.234L22.4892 213.27L12.8167 213.284C11.2987 213.285 9.57487 213.43 8.07787 213.213C7.77607 213.169 7.63429 213.14 7.44074 212.892C8.60702 212.213 12.0142 212.492 13.3892 212.502C12.298 208.353 11.3185 204.174 10.262 200.016C9.81944 198.275 9.03997 196.1 8.7654 194.395C8.74129 194.246 8.76172 193.989 8.8845 193.888C9.69667 193.214 15.9575 193.562 17.222 193.554C15.6637 192.296 13.9952 191.176 12.455 189.894C8.64425 186.724 6.54854 182.632 4.94807 178.023C2.85082 171.985 -1.52131 155.466 1.49167 149.556C1.83284 148.887 2.30375 148.221 3.05727 147.999C4.0082 147.718 5.0815 148.161 5.92317 148.594C7.84047 149.578 9.36885 151.261 10.715 152.905C16.2915 159.716 19.4415 168.143 22.0567 176.448C22.2815 175.411 22.4607 174.373 22.7202 173.343C22.6211 173.177 22.5251 173.008 22.4322 172.838C22.2767 172.549 22.0137 172.027 22.1842 171.695C22.4072 171.261 23.0552 170.958 23.3062 170.444C23.8895 169.249 24.6837 165.726 25.1282 164.203C23.8265 157.024 21.7607 149.92 20.0367 142.834C19.4782 140.539 18.0682 136.339 19.45 134.21C20.3012 132.898 21.7947 132.406 23.2467 132.11C23.074 124.875 26.588 126.927 27.7632 124.387C28.2847 123.26 27.5062 122.125 27.165 121.061C26.7607 119.799 27.0802 118.784 27.6627 117.656C26.1905 117.495 24.658 117.626 23.1755 117.656C21.1087 117.699 18.2605 118.027 16.6857 116.423C16.069 115.795 15.851 114.918 15.788 114.064C15.558 110.946 15.728 107.709 15.7362 104.579L15.7572 87.5307L15.625 39.4854C15.6342 37.6437 15.4005 35.1942 16.8495 33.8329C17.5007 33.2214 18.2677 32.9797 19.1442 32.9019C22.4067 32.6132 25.7292 32.8789 29.0007 32.8804L47.7815 32.8434L103.519 32.8857C103.403 30.2774 103.356 27.4732 102.491 24.9899C101.263 21.4632 99.1515 19.3657 98.7565 15.2907C98.4087 11.7029 99.3497 8.15793 101.679 5.37393C104.148 2.42345 107.546 0.880151 111.335 0.550701ZM16.671 115.045C17.465 116.112 18.326 116.575 19.6422 116.794C22.3557 117.244 25.767 116.863 28.5225 116.711C29.2567 116.067 29.98 115.38 30.7607 114.794C30.6877 113.389 30.4957 111.365 31.5285 110.246C32.6392 109.042 34.123 108.988 34.972 107.356C34.8112 105.736 34.2322 103.631 35.333 102.237C35.7627 101.693 36.3205 101.306 36.942 101.014C36.97 97.7979 37.5042 94.3292 39.9552 92.0044C41.1825 90.8404 42.9312 90.0629 44.6477 90.1682C45.0297 90.1914 45.4112 90.2999 45.779 90.3987C47.4855 89.3742 49.1497 88.8934 51.144 89.4072C52.8875 89.8564 54.216 91.1019 55.0862 92.6377C56.385 94.9294 56.6007 97.5097 56.4435 100.087C56.388 100.996 56.2512 101.97 56.3722 102.874C56.6512 104.959 58.3515 107.028 57.6852 109.203C57.4812 109.869 57.002 110.424 56.7942 111.08C56.6495 111.537 56.6172 112.085 56.5397 112.559C56.2187 114.531 55.364 115.446 53.6842 116.444C59.9142 117.291 66.3875 116.796 72.6685 116.827L83.2707 116.866C84.8755 116.861 86.5522 116.951 88.1485 116.807C86.1185 114.202 84.4575 111.37 82.5892 108.657C81.4955 107.069 80.241 105.554 79.0085 104.071C78.1452 103.033 77.2435 101.893 76.2082 101.025C76.122 101.628 76.0902 102.641 75.6745 103.109L75.37 103.016L75.488 103.255L75.7065 103.013L75.3595 103.024C75.225 101.899 75.273 101.208 75.9417 100.276C75.456 99.4789 74.8507 98.6387 74.5515 97.7554C75.1107 97.0757 75.47 96.4044 75.7737 95.5774C75.602 95.0864 75.4132 94.5824 75.3557 94.0629C75.154 92.2384 75.309 90.2827 75.327 88.4417C75.34 87.0967 75.2562 85.7077 75.3587 84.3694L72.5317 84.3854L64.872 84.3882C64.7792 87.2007 64.6407 90.0414 64.8737 92.8494C66.597 92.7194 71.1525 92.3782 72.4162 93.4614C72.7542 95.2247 72.4977 97.2932 72.5042 99.0934C72.5115 101.122 72.7152 103.323 72.4837 105.332C72.4225 105.865 72.3355 106.363 72.041 106.817C70.3165 107.458 61.922 107.148 59.7945 106.961C59.5765 106.454 59.4387 105.975 59.3707 105.428C59.1257 103.454 58.963 94.7777 59.6122 93.3117C59.717 93.0749 59.7952 93.0242 60.0342 92.9129C60.9932 92.4664 63.0262 92.7469 64.1082 92.7804C64.0884 89.9818 64.0836 87.1831 64.094 84.3844C60.5522 84.4407 57.0172 84.4879 53.4765 84.3644C53.37 77.4763 53.3467 70.5879 53.4067 63.6994C56.9377 63.7259 60.4792 63.8012 64.0067 63.6182L64.007 49.2119C64.0057 46.6839 64.1035 44.1187 63.9857 41.5954L89.6822 41.6187C95.0062 41.6257 100.413 41.4429 105.729 41.7152C105.223 41.2097 104.737 40.7117 104.446 40.0474C104.346 39.8159 104.263 39.5783 104.198 39.3344C104.133 39.0906 104.086 38.8433 104.057 38.5924C103.973 37.8914 104.034 33.9549 103.643 33.6757C103.438 33.5297 93.8102 33.6239 92.8552 33.6242L43.05 33.5384C35.297 33.5354 27.4907 33.3412 19.7427 33.5677C18.8112 33.6304 17.9067 33.7724 17.2515 34.5134C16.6972 35.1402 16.526 35.9982 16.4792 36.8097C16.4012 38.1682 16.496 39.5599 16.4932 40.9229L16.4452 49.6199L16.4747 83.1834L16.4972 103.373C16.4895 106.928 16.209 110.628 16.5447 114.159C16.5711 114.457 16.6131 114.752 16.671 115.045ZM60.5015 135.331C61.3952 137.182 62.7767 140.829 64.0007 142.269C64.1635 142.326 64.296 142.382 64.4695 142.391C65.8937 142.333 67.3267 142.231 68.7495 142.351C69.2662 140.966 69.5487 139.527 69.942 138.105C69.0915 136.661 67.6452 133.639 66.482 132.624L66.2012 132.609C64.171 133.431 62.2655 133.969 60.5015 135.331ZM54.1487 204.492C55.3912 204.52 60.8075 204.895 61.5667 204.332C61.7652 202.677 61.9772 201.023 62.2027 199.371C59.5375 199.171 56.7945 199.281 54.1207 199.29C54.1104 201.024 54.1197 202.758 54.1487 204.492ZM83.7682 198.48C83.0922 198.462 82.412 198.426 81.7362 198.436L75.2912 198.495L76.6685 204.386L78.1567 204.374C80.1544 204.378 82.1514 204.344 84.1477 204.271C84.0317 202.34 83.9052 200.41 83.7682 198.48ZM111.595 208.414L112.517 208.35C112.521 208.344 112.042 200.902 111.995 199.637C109.936 199.405 107.768 199.535 105.692 199.543L105.082 199.671C104.669 200.576 105.049 205.785 105.164 206.999C106.181 206.727 107.15 206.493 108.137 207.026C108.793 207.38 109.274 207.977 109.759 208.528L111.595 208.414ZM9.69215 164.677C10.0465 165.683 12.1582 171.192 12.2032 171.765L12.4052 171.775C12.4502 171.953 12.5212 172.083 12.4682 172.262L12.6 172.298C12.8092 172.041 12.981 171.804 13.1457 171.514L17.035 165.176C16.1517 162.569 14.7172 159.785 13.0712 157.595C11.8145 159.904 10.7347 162.264 9.69215 164.677ZM99.1855 123.096C98.6142 124.77 94.3517 143.748 94.4262 144.303C94.627 144.561 94.689 144.597 95.031 144.651C95.0932 144.66 95.157 144.658 95.22 144.662C96.6825 144.695 98.2585 144.556 99.6997 144.727C99.6422 141.056 99.5025 137.391 99.485 133.719C99.4695 130.424 99.602 127.047 99.366 123.762C99.348 123.514 99.3352 123.302 99.1855 123.096ZM75.8825 212.499C76.0377 210 76.2112 207.121 75.8572 204.649C75.3662 201.221 74.1627 197.794 73.3235 194.436L70.2297 182.177C69.686 179.966 69.2247 177.727 68.6455 175.527C68.5162 175.036 68.4085 174.439 68.1285 174.011C67.8122 173.833 67.5822 173.779 67.2312 173.718L64.7457 190.795C64.4425 192.999 64.4005 195.747 63.9477 197.842C63.7542 198.738 63.1 199.412 62.9177 200.381C62.615 201.99 62.481 203.608 62.2612 205.228C62.9225 205.672 63.5865 206.136 64.2805 206.528C65.768 207.368 67.9725 208.163 69.0547 209.541C69.4627 210.06 69.715 210.805 69.9897 211.412C70.3587 212.226 70.3645 212.457 71.3047 212.428L71.47 212.423C72.934 212.538 74.4145 212.498 75.8825 212.499ZM224.044 169.16C223.883 167.576 223.779 164.581 222.952 163.263C220.552 164.541 218.133 165.572 215.674 166.709C215.183 168.241 213.799 172.174 213.804 173.578C214.025 173.519 214.263 173.477 214.468 173.374C217.685 172.019 220.846 170.555 224.044 169.16ZM191.83 169.181C190.14 169.229 188.233 169.474 186.562 169.28L187.075 173.002C190.429 172.985 193.822 172.862 197.171 173.007C198.429 172.966 201.168 173.002 202.112 172.019C202.278 171.845 202.331 171.721 202.396 171.497C202.352 171.087 202.194 170.87 201.886 170.615C199.38 168.542 194.84 169.099 191.83 169.181ZM14.539 180.976C13.8672 178.5 12.8165 176.134 12.134 173.672C9.69592 173.351 6.41479 172.824 4.08485 172.112C4.68402 174.338 5.18444 176.692 6.12999 178.796C8.93712 179.116 11.769 180.353 14.539 180.976ZM17.098 189.117C16.3275 186.688 15.5977 184.247 14.8057 181.824C12.021 181.061 9.23432 180.248 6.41284 179.634C7.73657 182.898 9.55967 187.092 13.0545 188.538C14.3655 189.08 15.6962 189.175 17.098 189.117ZM12.9157 173.505C13.3727 174.92 14.6027 179.371 15.3642 180.228L15.549 180.08C16.9892 177.761 18.4337 175.268 20.097 173.11C19.5605 171.352 18.5067 167.364 17.3377 166.09C15.887 168.393 13.993 171.034 12.9157 173.505ZM53.8005 117.407C55.2227 118.055 56.7737 118.58 58.1335 119.344C63.1855 122.187 65.054 127.384 68.2887 131.678L67.388 132.374C68.3235 133.988 69.371 135.534 70.299 137.151C70.8092 134.781 71.4867 132.433 72.0612 130.076C72.5785 127.954 73.5685 122.528 74.598 120.797C76.8517 120.052 80.2337 120.467 82.6255 120.485C85.6007 120.508 88.5927 120.555 91.5665 120.491C90.6727 119.561 89.7732 118.622 88.9427 117.634C77.2294 117.456 65.5153 117.381 53.8005 117.407ZM15.5827 181.579C16.2857 183.814 17.0627 186.037 17.7355 188.279L17.9427 188.456C18.9157 188.126 19.881 186.377 20.3217 185.475C22.068 181.901 22.4245 179.514 21.0982 175.722C20.9105 175.185 20.7267 174.561 20.4002 174.095C18.653 176.451 17.1135 179.074 15.5827 181.579ZM64.067 129.844C63.0757 130.824 62.8205 131.903 62.558 133.219C63.2472 132.923 63.9177 132.629 64.57 132.257C64.611 132.231 64.6517 132.204 64.6932 132.179C65.276 131.824 66.199 131.723 66.6605 131.308C66.661 130.992 66.6495 131.006 66.4287 130.798C65.8515 130.253 64.833 129.976 64.067 129.844ZM206.697 178.153C208.055 179.877 209.267 182.387 210.871 183.821L211.031 183.824C211.467 180.599 211.997 177.438 212.79 174.278C211.698 172.837 209.794 169.955 208.465 168.948C207.69 171.969 206.885 175.027 206.697 178.153ZM126.397 117.655C125.997 117.738 125.699 117.771 125.404 118.083L125.347 118.376C125.593 118.7 125.722 118.834 126.154 118.887C126.298 118.905 126.444 118.913 126.589 118.922C126.935 118.812 127.091 118.794 127.343 118.525C127.339 118.215 127.327 118.099 127.057 117.888C126.882 117.75 126.612 117.695 126.397 117.655ZM172.526 173.74C171.183 173.742 169.838 173.73 168.495 173.749C168.812 175.811 169.236 179.536 170.049 181.33C170.139 181.202 170.088 181.29 170.152 181.043L170.177 181.105L170.743 179.405C171.338 177.523 171.998 175.641 172.526 173.74ZM3.93239 171.306C6.58061 171.83 9.22547 172.371 11.867 172.928C10.9132 170.554 10.012 168.113 9.1984 165.687C6.9951 165.135 4.57729 164.308 2.32889 164.07C2.52689 166.377 3.08774 169.154 3.93239 171.306ZM43.0032 109.669C42.997 111.598 43.2455 114.007 41.7267 115.459C41.1122 116.047 40.317 116.365 39.5375 116.667C41.7382 118.3 43.9332 118.751 46.6297 118.352L46.826 118.322C48.1545 118.025 49.1685 117.521 50.294 116.76C48.8867 116.049 47.4367 115.391 46.9292 113.762C46.7297 113.122 46.7527 112.39 46.7327 111.724C45.3947 111.265 44.1545 110.48 43.0032 109.669ZM27.719 180.519C29.9335 180.448 32.1602 180.089 34.3707 180.101C34.9857 178.32 36.4757 174.896 36.3117 173.05L36.1327 172.885L35.8097 172.919C33.6215 173.287 31.4427 173.569 29.2467 173.868C28.8232 175.094 27.145 179.32 27.3487 180.43C27.4597 180.458 27.606 180.511 27.719 180.519ZM168.29 172.964C170.876 172.972 173.463 172.959 176.049 172.924C177.79 172.896 179.58 172.786 181.319 172.9L180.499 169.265L172.464 169.245C170.935 169.246 169.213 169.391 167.71 169.157C167.89 170.423 168.027 171.714 168.29 172.964ZM146.26 117.808C143.378 117.856 140.496 117.881 137.614 117.882C137.062 118.686 136.529 119.518 135.891 120.258C138.823 120.398 141.783 120.378 144.718 120.375C148.047 120.359 151.442 120.481 154.761 120.279L154.226 117.882C151.57 117.88 148.915 117.855 146.26 117.808ZM204.411 170.731C204.967 167.916 205.708 165.123 206.387 162.334C207.599 157.314 208.862 152.307 210.176 147.313L211.866 140.756C212.204 139.45 212.666 138.12 212.799 136.776C212.913 135.618 212.816 134.865 212.167 133.866C211.489 132.824 210.467 132.255 209.26 132.031C208.305 131.854 207.344 131.89 206.378 131.923C206.089 131.965 205.831 131.944 205.608 132.139C205.367 135.052 205.698 138.133 205.775 141.055L205.999 149.474C206.037 151.052 205.998 152.642 206.114 154.215C205.184 154.182 204.264 154.223 203.336 154.265C203.309 157.155 203.9 166.38 201.832 168.422C201.588 168.663 201.316 168.883 201.053 169.103C201.764 169.497 203.034 170.056 203.213 170.945C203.35 171.625 202.679 172.079 203.363 172.685C203.518 172.822 203.465 172.788 203.654 172.823C203.976 172.637 204.093 172.383 204.184 172.025C204.291 171.603 204.347 171.161 204.411 170.731ZM29.2805 132.332C27.9785 134.471 25.4892 140.377 24.9815 142.635C25.4637 143.651 25.939 144.273 26.9272 144.857C31.144 144.945 35.3582 144.368 39.5755 144.226C39.8425 143.943 40.1202 143.627 40.4775 143.459C41.999 142.745 45.625 142.264 47.312 142.22C48.9377 142.177 50.5722 142.438 52.1917 142.559C53.6945 142.671 55.212 142.668 56.7182 142.678C56.6985 142.208 56.695 141.846 56.837 141.395L57.0845 141.929C57.3547 141.985 57.4725 141.91 57.707 141.76C57.7325 141.743 57.748 141.715 57.7687 141.693L56.0275 139.623C56.9632 140.039 57.7495 140.569 58.5765 141.168C58.3185 140.756 58.039 140.353 57.8047 139.928C57.4517 139.287 56.3747 139.118 55.7965 138.646C56.0767 138.534 56.4185 138.628 56.7155 138.663C56.5035 138.082 55.001 137.859 55.0535 137.13C55.3067 137.028 55.5495 136.943 55.814 136.874C55.403 136.667 54.7842 136.725 54.3257 136.748C52.6347 136.835 50.9397 137.097 49.2527 137.258L40.018 138.063C37.589 138.282 35.1715 138.57 32.7317 138.65C33.3315 137.099 33.9085 135.534 34.597 134.019C32.8452 133.36 31.0952 132.797 29.2805 132.332ZM26.9757 181.259C26.2515 183.538 25.2877 185.948 24.8162 188.28L24.881 188.111L24.8147 188.318C25.189 188.366 25.525 188.386 25.902 188.375C27.3567 188.33 29.287 188.269 30.332 187.123C31.7817 185.533 33.3 183.24 33.9307 181.17L33.853 180.979C33.512 180.852 33.2597 180.887 32.9092 180.926C30.9567 181.1 28.936 181.319 26.9757 181.259ZM41.7082 135.057C41.7447 135.048 41.7809 135.038 41.8167 135.027C41.8527 135.016 41.8884 135.005 41.9237 134.992C41.959 134.979 41.9941 134.966 42.0287 134.952C42.0636 134.938 42.0979 134.922 42.1317 134.906C42.1657 134.89 42.1993 134.874 42.2325 134.856C42.2656 134.838 42.2983 134.82 42.3305 134.801C42.3628 134.782 42.3946 134.762 42.4257 134.741C42.4571 134.72 42.4878 134.699 42.518 134.676C42.5481 134.654 42.5778 134.631 42.607 134.607C42.6361 134.584 42.6646 134.559 42.6925 134.534C42.7203 134.509 42.7476 134.483 42.7742 134.457C42.8009 134.43 42.8269 134.403 42.8522 134.376C42.8776 134.348 42.9021 134.32 42.926 134.291C42.95 134.262 42.9732 134.232 42.9957 134.202C43.0181 134.172 43.0397 134.142 43.0607 134.111C43.0817 134.079 43.102 134.048 43.1215 134.016C43.141 133.984 43.1596 133.951 43.1775 133.918C43.1953 133.885 43.2123 133.852 43.2285 133.818C43.2446 133.784 43.26 133.75 43.2745 133.715C43.2891 133.681 43.3029 133.646 43.3157 133.61C43.3286 133.575 43.3405 133.54 43.3515 133.504C43.3626 133.468 43.3728 133.432 43.382 133.395C43.3913 133.359 43.3998 133.322 43.4075 133.286C43.415 133.249 43.4216 133.212 43.4272 133.175C43.4331 133.138 43.4379 133.101 43.4417 133.063C43.4456 133.026 43.4486 132.988 43.4507 132.951C43.4527 132.914 43.4539 132.876 43.4542 132.838C43.4544 132.801 43.4537 132.763 43.4522 132.726C43.4506 132.688 43.448 132.651 43.4445 132.614C43.4411 132.576 43.4368 132.539 43.4315 132.502C43.4263 132.465 43.4201 132.428 43.413 132.391C43.406 132.354 43.3981 132.317 43.3892 132.281C43.3804 132.244 43.3706 132.208 43.36 132.172C43.3493 132.136 43.3378 132.101 43.3255 132.065C43.3131 132.03 43.2999 131.995 43.2857 131.96C43.2717 131.925 43.2568 131.891 43.241 131.857C43.2251 131.823 43.2086 131.789 43.1912 131.756C43.1737 131.723 43.1555 131.69 43.1365 131.657C43.1175 131.625 43.0977 131.593 43.0772 131.562C43.0566 131.53 43.0352 131.5 43.0132 131.469C42.9911 131.439 42.9682 131.409 42.9447 131.38C42.9211 131.351 42.8968 131.322 42.872 131.294C42.847 131.266 42.8213 131.239 42.795 131.212C42.7688 131.185 42.7419 131.159 42.7142 131.133C42.6867 131.108 42.6586 131.083 42.6297 131.059C42.6009 131.035 42.5716 131.012 42.5417 130.989C42.5117 130.967 42.4812 130.945 42.4502 130.923C42.4192 130.902 42.3877 130.882 42.3557 130.862C42.3237 130.843 42.2913 130.824 42.2585 130.806C42.2256 130.788 42.1923 130.771 42.1585 130.754C42.1248 130.738 42.0906 130.722 42.056 130.707C42.0215 130.693 41.9866 130.679 41.9515 130.666C41.9163 130.653 41.8808 130.641 41.845 130.629C41.8093 130.618 41.7733 130.608 41.737 130.598C41.7006 130.589 41.6641 130.58 41.6275 130.572C41.5906 130.565 41.5537 130.558 41.5167 130.552C41.4797 130.546 41.4426 130.541 41.4052 130.537C41.3679 130.533 41.3306 130.53 41.2932 130.527C41.2557 130.525 41.2182 130.524 41.1807 130.523C41.1432 130.523 41.1057 130.523 41.0682 130.524C41.0307 130.526 40.9932 130.528 40.9557 130.531C40.9184 130.535 40.8811 130.539 40.844 130.544C40.8068 130.549 40.7697 130.555 40.7327 130.562C40.6959 130.569 40.6592 130.576 40.6227 130.585C40.5859 130.594 40.5494 130.603 40.5132 130.614C40.4769 130.624 40.4408 130.636 40.405 130.648C40.3693 130.66 40.3339 130.673 40.2987 130.687C40.2637 130.701 40.229 130.716 40.1947 130.732C40.1604 130.748 40.1265 130.764 40.093 130.782C40.0593 130.799 40.0262 130.817 39.9937 130.836C39.9611 130.856 39.9289 130.876 39.8972 130.896C39.8656 130.917 39.8344 130.938 39.8037 130.96C39.7731 130.982 39.7431 131.005 39.7137 131.029C39.6842 131.053 39.6553 131.077 39.627 131.102C39.5986 131.127 39.571 131.153 39.544 131.179C39.517 131.206 39.4906 131.233 39.465 131.26C39.4393 131.288 39.4144 131.317 39.3902 131.345C39.3659 131.374 39.3423 131.404 39.3195 131.434C39.2966 131.464 39.2746 131.495 39.2532 131.526C39.2319 131.557 39.2114 131.589 39.1917 131.621C39.1719 131.653 39.1529 131.686 39.1347 131.719C39.1166 131.752 39.0993 131.786 39.083 131.82C39.0665 131.854 39.0508 131.888 39.036 131.923C39.0211 131.958 39.0072 131.993 38.9942 132.028C38.9811 132.064 38.9689 132.1 38.9577 132.136C38.9464 132.172 38.936 132.208 38.9265 132.245C38.917 132.281 38.9083 132.318 38.9005 132.355C38.8928 132.392 38.8861 132.429 38.8802 132.467C38.8744 132.504 38.8695 132.541 38.8655 132.579C38.8613 132.616 38.8581 132.654 38.856 132.692C38.8538 132.73 38.8526 132.767 38.8525 132.805C38.8521 132.843 38.8527 132.881 38.8542 132.918C38.8557 132.956 38.8582 132.994 38.8617 133.031C38.8651 133.069 38.8694 133.107 38.8747 133.144C38.8799 133.182 38.8861 133.219 38.8932 133.256C38.9004 133.293 38.9084 133.33 38.9172 133.367C38.9261 133.403 38.9359 133.44 38.9467 133.476C38.9574 133.512 38.969 133.548 38.9815 133.584C38.994 133.62 39.0073 133.655 39.0215 133.69C39.0356 133.725 39.0507 133.76 39.0667 133.794C39.0827 133.828 39.0995 133.862 39.117 133.895C39.1346 133.929 39.1531 133.962 39.1722 133.994C39.1916 134.027 39.2116 134.059 39.2322 134.09C39.2531 134.122 39.2746 134.153 39.297 134.184C39.3193 134.214 39.3424 134.244 39.3662 134.273C39.3901 134.303 39.4146 134.331 39.4397 134.359C39.4649 134.388 39.4908 134.415 39.5175 134.442C39.544 134.469 39.5711 134.495 39.599 134.521C39.627 134.546 39.6555 134.571 39.6845 134.595C39.7136 134.619 39.7433 134.643 39.7735 134.665C39.8038 134.688 39.8346 134.71 39.8657 134.731C39.8971 134.752 39.9289 134.772 39.9612 134.792C39.9936 134.812 40.0264 134.83 40.0597 134.848C40.0929 134.866 40.1266 134.883 40.1607 134.9C40.1947 134.916 40.2291 134.932 40.264 134.946C40.299 134.961 40.3342 134.974 40.3697 134.987C40.4052 135 40.4411 135.012 40.4772 135.023C40.5132 135.034 40.5496 135.045 40.5862 135.054C40.6229 135.063 40.6597 135.072 40.6967 135.079C40.7337 135.087 40.7709 135.093 40.8082 135.099C40.8457 135.105 40.8832 135.109 40.9207 135.113C40.9584 135.117 40.9961 135.12 41.0337 135.122C41.0716 135.124 41.1093 135.125 41.147 135.125C41.1848 135.125 41.2226 135.124 41.2602 135.122C41.2981 135.121 41.3358 135.118 41.3735 135.114C41.411 135.111 41.4485 135.106 41.486 135.101C41.5233 135.095 41.5605 135.089 41.5975 135.081C41.6346 135.074 41.6716 135.066 41.7082 135.057ZM76.6507 205.143C76.613 206.468 76.6257 207.774 76.6777 209.098C78.1727 209.011 84.416 209.433 85.2382 209.028C86.4237 208.004 87.4182 207.529 88.9362 207.158C84.9525 204.905 84.465 204.996 80.0047 205.056C78.8871 205.101 77.7691 205.13 76.6507 205.143ZM8.14209 151.308C7.54102 153.085 7.00534 154.889 6.37244 156.656C7.19942 159.033 8.2711 161.381 9.27842 163.689C9.47037 163.185 9.6425 162.656 9.8866 162.174C10.7275 160.375 11.5422 158.536 12.5962 156.848C11.2512 154.835 9.94209 152.952 8.14209 151.308ZM2.11524 163.168C4.35774 163.577 6.4964 164.436 8.75482 164.781C7.90435 162.389 6.88317 160.084 5.94479 157.729C4.31294 156.966 2.82252 155.99 1.22954 155.164C1.38094 157.858 1.56319 160.52 2.11524 163.168ZM23.356 173.207C23.943 174.151 25.9675 179.124 26.6527 179.334C27.352 177.182 28.4025 174.77 28.7167 172.538C28.0047 170.796 26.721 167.138 25.416 165.952C24.64 168.347 23.9092 170.749 23.356 173.207ZM100.85 116.737C100.297 117.3 99.8672 117.877 99.6157 118.631C99.6927 118.879 99.6292 118.793 99.7552 118.918C100.159 118.896 100.536 118.975 100.821 118.634C101.171 118.217 101.123 117.379 100.937 116.892C100.916 116.836 100.879 116.788 100.85 116.737ZM23.2507 132.762C21.98 133.196 20.6702 133.622 20.0172 134.909C19.6927 135.549 19.5902 136.116 19.638 136.83C19.7485 138.48 20.2027 140.166 20.5722 141.776C21.3367 145.105 22.2152 148.404 23.0597 151.713L24.8745 159.005C25.1845 160.301 25.4167 161.627 25.7812 162.906C25.961 162.303 26.1575 161.712 26.3697 161.12C27.1761 159.124 28.1 157.184 29.1415 155.299C28.2575 152.146 27.997 148.836 27.0537 145.688C25.9965 145.291 25.062 144.87 24.5965 143.753C23.7595 141.746 25.9157 137.87 26.7045 135.887C25.418 135.341 24.6807 134.823 23.8825 133.654C23.694 133.378 23.496 132.985 23.2507 132.762ZM53.5185 209.209C55.581 209.219 57.6424 209.176 59.7027 209.079C60.3135 208.515 61.004 208.062 61.7512 207.698C62.3915 207.54 63.051 207.405 63.6772 207.199C62.9662 206.62 62.2865 206.051 61.4265 205.704C59.4207 204.892 55.855 205.254 53.643 205.289C53.5087 206.596 53.4807 207.895 53.5185 209.209ZM210.245 192.407C210.389 189.949 210.484 187.356 210.901 184.93C210.213 184.21 206.906 179.71 206.535 179.547C206.434 182.712 206.379 185.927 206.92 189.058C207.631 189.98 209.069 192.259 210.05 192.756C210.256 192.59 210.181 192.7 210.245 192.407ZM163.1 205.433C162.605 205.6 162.099 205.751 161.612 205.937C162.674 206.636 163.693 207.383 164.713 208.14C166.501 208.184 168.291 208.147 170.077 208.195C170.654 208.172 171.23 208.16 171.807 208.158C171.599 206.853 171.367 205.547 171.201 204.236C168.47 204.253 165.753 204.268 163.027 204.117C163.053 204.554 163.091 204.995 163.1 205.433ZM192.983 211.332L193.179 211.633C193.537 211.017 191.527 201.708 191.227 200.173C188.798 187.729 186.409 175.227 184.777 162.652C184.272 158.765 183.702 154.8 183.435 150.892C181.752 150.867 180.034 150.752 178.355 150.798L177.296 150.925C177.557 153.622 178.633 157.515 179.23 160.3C181.554 171.147 184.523 181.81 187.474 192.5C188.652 196.811 189.868 201.112 191.123 205.401C191.701 207.355 192.186 209.459 192.983 211.332ZM58.2797 150.942C58.2245 151.51 58.2147 152.053 58.237 152.623L66.557 152.617C71.325 152.6 76.328 152.127 79.983 155.808C81.4465 157.282 82.4097 159.111 82.879 161.128C83.7222 164.753 83.4635 168.818 83.6125 172.529L84.3912 191.554C84.5327 195.666 84.4735 199.926 84.935 204.016C86.1762 204.74 87.4322 205.451 88.7272 206.075C91.5205 207.42 94.5715 208.335 95.4677 211.704C95.534 211.957 95.5946 212.212 95.6492 212.468C97.233 212.47 98.8235 212.503 100.406 212.467C100.753 211.377 101.061 210.527 101.81 209.632C102.593 208.812 103.499 208.118 104.378 207.403C104.349 204.81 104.239 202.217 104.225 199.625C103.624 199.573 103.023 199.51 102.421 199.491C102.121 197.437 102.16 195.337 102.084 193.265L101.724 182.874L100.743 150.894L74.0927 150.871C68.8555 150.864 63.5095 150.681 58.2797 150.942ZM212.017 161.454C210.583 163.407 209.604 165.537 208.795 167.814C209.974 169.342 211.178 170.88 212.264 172.475C212.503 172.711 212.646 172.932 212.978 173.016C213.744 170.783 214.313 168.461 214.99 166.196C214.301 165.038 213.035 162.116 212.017 161.454ZM140.221 183.78L141.523 171.48C141.846 168.117 141.773 164.386 142.829 161.157C143.505 159.092 144.681 157.075 146.375 155.683C146.525 155.562 146.679 155.446 146.836 155.334C146.993 155.222 147.154 155.115 147.318 155.013C147.482 154.911 147.649 154.815 147.819 154.723C147.989 154.632 148.161 154.545 148.336 154.464C148.512 154.383 148.689 154.308 148.869 154.238C149.049 154.168 149.231 154.103 149.414 154.044C149.598 153.986 149.784 153.933 149.971 153.885C150.158 153.838 150.346 153.796 150.536 153.76C153.896 153.091 157.669 153.498 161.093 153.55C165.059 153.598 169.025 153.581 172.99 153.501C172.988 152.629 172.972 151.754 172.988 150.882L128.727 150.885C128.428 155.248 128.4 159.617 128.257 163.985L127.528 186.128C127.395 190.489 127.571 195.013 127.098 199.344L125.743 199.401C125.674 201.977 125.536 204.591 125.669 207.165C126.943 208.043 128.284 208.899 129.344 210.038C130.115 210.866 130.379 212.21 131.191 212.561C131.432 212.513 131.422 212.566 131.548 212.394C132.052 211.703 131.787 210.651 132.194 209.882C133.604 207.218 137.45 205.384 140.141 204.285L139.976 199.987C139.552 199.886 139.135 199.841 138.817 199.517C138.339 197.937 139.952 186.205 140.221 183.78ZM139.175 205.61C140.356 206.426 141.383 207.372 142.522 208.231L146.844 208.299L149.147 208.303C149.064 206.964 148.901 205.618 148.721 204.288C146.24 204.266 143.739 204.212 141.259 204.278C140.608 205.013 140.074 205.251 139.175 205.61ZM40.3182 151.017C39.6372 151.203 39.1247 151.427 38.7625 152.068C38.4752 152.577 38.4657 153.143 38.648 153.687C38.8615 154.326 39.3697 154.884 39.9717 155.181C40.5565 155.469 41.0592 155.409 41.686 155.353C42.4017 154.947 43.0985 154.471 43.3332 153.637C43.3519 153.57 43.3669 153.502 43.3782 153.434C43.3896 153.365 43.3972 153.296 43.4012 153.227C43.4052 153.158 43.4054 153.089 43.4017 153.019C43.3982 152.95 43.391 152.881 43.38 152.812C43.369 152.744 43.3543 152.676 43.336 152.609C43.3178 152.542 43.296 152.477 43.2705 152.412C43.2451 152.347 43.2164 152.284 43.1842 152.223C43.1521 152.161 43.1166 152.102 43.078 152.044C42.7267 151.513 42.0902 151.112 41.4607 151.022C41.0817 150.968 40.6985 150.988 40.3182 151.017ZM37.3372 161.625C35.5029 162.586 33.6831 163.574 31.8777 164.589C31.515 165.811 29.252 172.393 29.6487 173.136C29.6535 173.145 29.6622 173.151 29.669 173.159C31.953 172.69 34.2947 172.424 36.596 172.042C37.0567 169.52 37.9687 163.997 37.3372 161.625ZM44.7227 150.994C43.7495 156.594 42.538 162.154 41.4247 167.727L34.3522 203.266C34.0395 204.891 32.4725 211.262 32.5965 212.308L32.7872 212.339C33.7762 211.603 34.0497 209.422 34.3947 208.279C38.3977 194.57 42.7795 180.962 46.557 167.186C47.9771 161.812 49.3231 156.418 50.5947 151.006C48.6532 150.983 46.659 150.869 44.7227 150.994ZM25.9245 164.711C27.036 166.85 28.1907 169.006 29.1002 171.241C29.7467 170.361 30.6917 165.916 31.039 164.584C30.2422 162.924 29.5032 160.443 28.17 159.194C27.2632 160.945 26.6955 162.895 25.9245 164.711ZM33.9795 151.496C32.89 151.86 32.2227 152.347 31.4995 153.236C31.9682 154.224 32.4775 155.208 32.908 156.213L33.142 156.43C33.7432 155.99 34.3742 152.815 34.5245 151.945C34.5472 151.813 34.5607 151.68 34.5767 151.548L33.9795 151.496ZM32.444 126.062C33.3867 125.622 34.0247 125.136 34.3647 124.115C34.5425 123.581 34.5527 123.045 34.27 122.546C34.042 122.144 33.4982 121.863 33.0605 121.775C32.8892 121.74 32.7125 121.743 32.539 121.742C31.6427 122.179 30.9055 122.696 30.538 123.665C30.3462 124.17 30.334 124.664 30.5917 125.148C30.8017 125.543 31.3295 125.861 31.7535 125.962C31.9782 126.016 32.2142 126.038 32.444 126.062ZM23.2565 174.811C22.4387 177.822 22.6492 180.944 23.3095 183.964C23.4362 184.544 23.5932 185.441 23.9447 185.918C24.0522 186.065 24.0717 186.068 24.1967 186.161C24.3697 186.135 24.4287 186.173 24.5362 186.021C24.6455 185.867 24.7007 185.718 24.766 185.543C25.2255 184.004 25.7021 182.471 26.1957 180.944C25.57 179.524 24.249 175.784 23.2565 174.811ZM52.0995 173.834C49.9912 173.72 47.8322 173.707 45.7237 173.806C45.5895 173.922 45.5032 174.024 45.4387 174.192C44.0957 177.688 43.239 181.499 42.18 185.094L36.2185 205.119C35.5297 207.428 34.9022 210.242 33.9662 212.424C36.8215 212.563 39.7042 212.482 42.563 212.48L49.3875 212.469C50.525 212.464 51.7227 212.351 52.8505 212.498C52.807 210.356 52.6997 208.142 52.885 206.007C53.0077 204.589 53.4017 203.204 53.403 201.772C53.4045 200.141 52.6865 198.654 52.6435 197.001C52.528 192.573 52.4985 188.126 52.45 183.696C52.4142 180.428 52.4282 177.085 52.0995 173.834ZM49.706 130.381C48.95 130.581 48.3237 130.898 47.8962 131.581C47.8517 131.652 47.8109 131.724 47.7737 131.798C47.7367 131.873 47.7036 131.949 47.6742 132.026C47.6449 132.104 47.6197 132.183 47.5987 132.264C47.5776 132.344 47.5606 132.425 47.5477 132.507C47.5349 132.589 47.5264 132.672 47.5222 132.755C47.5179 132.838 47.5179 132.921 47.5222 133.004C47.5264 133.087 47.5349 133.169 47.5477 133.251C47.5604 133.334 47.5773 133.415 47.5985 133.495C47.7685 134.136 48.2287 134.663 48.8085 134.972C49.189 135.176 49.5995 135.209 50.0217 135.248C50.7517 134.995 51.4482 134.458 51.81 133.762C52.0705 133.26 52.0882 132.639 51.9075 132.108C51.71 131.528 51.247 130.914 50.67 130.671C50.371 130.545 50.0182 130.49 49.706 130.381ZM6.4132 153.967C6.7398 152.842 7.11382 151.737 7.49657 150.63C6.17349 149.646 5.10124 148.86 3.42772 148.598C3.84817 150.955 4.98874 153.187 5.96057 155.358L6.4132 153.967ZM162.141 199.747C162.373 200.989 162.641 202.19 162.995 203.405C163.402 203.427 163.812 203.457 164.219 203.463C166.501 203.482 168.782 203.454 171.063 203.377C170.857 202.148 170.6 200.895 170.275 199.691L168.991 199.678C166.713 199.794 164.421 199.747 162.141 199.747ZM35.153 133.231C34.85 132.557 34.5692 131.866 34.18 131.236C33.2132 130.715 32.1745 130.212 31.0455 130.248C30.265 130.655 29.5295 131.096 28.793 131.578C30.3545 131.775 31.816 132.129 33.3057 132.633L35.153 133.231ZM110.17 90.9109C110.45 91.3392 110.628 91.4357 111.131 91.5272C112.385 91.7552 114.34 91.7547 115.521 91.3172C115.369 91.1142 115.37 91.0027 115.107 90.9662C114.379 90.8649 113.504 91.0547 112.76 91.0754C111.878 91.1004 111.044 91.0024 110.17 90.9109ZM148.323 199.753C147.868 199.716 147.407 199.654 146.951 199.68C144.854 199.762 142.75 199.738 140.651 199.743L140.786 203.366L142.394 203.481C144.481 203.482 146.589 203.546 148.672 203.447L148.323 199.753ZM60.5207 138.631C59.4232 138.062 58.1312 137.264 56.856 137.273C57.5807 138.604 59.9887 140.08 59.486 141.736C59.4543 141.839 59.4208 141.94 59.3855 142.041L59.455 142.237C60.4805 142.554 61.69 142.406 62.7505 142.367L62.8885 142.191C62.6775 141.419 62.1995 140.686 61.7527 140.028C61.3602 139.929 61.1405 139.862 60.8422 139.565C60.7302 139.255 60.6162 138.947 60.5207 138.631ZM145.97 96.1597C146.68 96.2467 146.816 96.1867 147.375 95.7497C148.618 94.7789 149.48 94.3117 151.043 94.0657C151.243 92.1549 151.117 90.1549 151.08 88.2349C148.787 88.2043 146.495 88.1878 144.202 88.1857C142.628 88.2144 140.963 88.1422 139.405 88.3352C139.331 90.9832 139.084 93.8547 139.59 96.4614C141.843 97.1949 143.734 96.3764 145.97 96.1597ZM32.7415 145.362C31.7837 145.992 31.161 146.657 30.922 147.812C30.8132 148.337 30.8275 148.961 31.1535 149.411C31.3845 149.73 31.807 149.971 32.1975 150.021C32.506 150.061 32.7905 150.024 33.0935 149.97C33.9492 149.391 34.6317 148.776 34.8445 147.715C34.9387 147.245 34.878 146.747 34.605 146.344C34.2502 145.821 33.476 145.455 32.864 145.37C32.8235 145.364 32.7822 145.364 32.7415 145.362ZM24.517 189.263C24.129 190.226 22.9937 192.423 23.3967 193.386C25.4277 192.096 27.2445 190.644 28.9472 188.944L28.878 188.806C27.4385 189.094 25.9848 189.246 24.517 189.263ZM173.196 135.258C173.634 135.336 174.098 135.475 174.525 135.304C175.199 134.633 175.103 132.37 175.274 131.33C173.272 131.191 171.248 131.379 169.252 131.182C168.736 132.819 168.426 134.486 168.107 136.17C169.803 135.389 171.33 135.135 173.196 135.258ZM96.0777 73.7087C96.0646 70.5648 96.0779 67.4212 96.1177 64.2777L86.5437 64.2522C86.2387 67.1237 86.379 70.7942 86.4917 73.7034C89.6827 73.8092 92.8852 73.7329 96.0777 73.7087ZM107.063 143.043L120.82 143.025C123.026 143.035 125.274 142.941 127.473 143.116C128.08 138.158 128.104 133.025 128.251 128.03C128.317 125.781 128.591 123.323 128.335 121.098C126.133 120.542 123.944 120.561 121.689 120.68C118.826 120.814 115.936 120.746 113.069 120.747L100.001 120.769C100.012 124.376 100.197 127.978 100.255 131.584C100.315 135.403 100.237 139.261 100.488 143.071C102.679 143.05 104.871 143.041 107.063 143.043ZM111.102 20.6417L111.553 20.6174C111.865 20.2679 111.865 19.7687 111.838 19.3232C111.781 18.3902 111.406 17.2584 110.662 16.6449C110.309 16.3532 109.858 16.2544 109.409 16.2487C109.008 16.5372 108.715 16.8724 108.61 17.3719C108.487 17.9564 108.723 18.5339 109.051 19.0079C109.585 19.7779 110.244 20.2847 111.102 20.6417ZM22.2947 183.081C21.3957 186.48 21.2837 189.987 20.018 193.316C20.049 193.49 20.0315 193.538 20.1555 193.671C20.7273 193.694 21.2993 193.713 21.8715 193.726C21.8782 191.53 22.8025 184.501 22.2947 183.081ZM57.1032 130.489C56.352 130.825 55.8975 131.142 55.58 131.927C55.2967 132.627 55.305 133.442 55.6345 134.124C55.9062 134.688 56.3727 135.099 56.964 135.303C57.4047 135.455 57.7957 135.447 58.2502 135.38L59.3602 134.758C59.827 133.934 60.145 133.246 59.895 132.287C59.7225 131.625 59.2892 131.115 58.6825 130.805C58.1765 130.546 57.6627 130.485 57.1032 130.489ZM149.986 94.9892C148.582 95.8042 147.059 97.1594 146.37 98.6542L146.399 98.8587C146.67 98.8207 146.727 98.7562 146.937 98.5914C147.263 98.3619 147.617 98.1432 147.903 97.8652L147.782 97.6287L147.935 97.5477L148.053 97.7259C148.75 97.4442 150.235 96.1779 150.481 95.4559C150.535 95.2997 150.526 95.2952 150.531 95.1547C150.33 94.9562 150.258 95.0094 149.986 94.9892ZM49.3285 121.45C49.2125 121.471 49.0987 121.5 48.9872 121.539C48.8759 121.577 48.7681 121.624 48.664 121.679C48.5596 121.734 48.4602 121.797 48.3657 121.867C48.2712 121.938 48.1826 122.015 48.1 122.099C48.0576 122.142 48.017 122.187 47.978 122.233C47.9391 122.28 47.9022 122.328 47.8672 122.377C47.8321 122.426 47.799 122.477 47.768 122.529C47.7368 122.581 47.7078 122.634 47.681 122.688C47.6541 122.742 47.6295 122.797 47.607 122.853C47.5845 122.91 47.5642 122.967 47.5462 123.024C47.5282 123.082 47.5125 123.14 47.499 123.199C47.4856 123.258 47.4746 123.318 47.466 123.378C47.4573 123.438 47.451 123.498 47.447 123.558C47.4431 123.618 47.4416 123.679 47.4425 123.739C47.4433 123.8 47.4466 123.86 47.4522 123.92C47.4579 123.981 47.4659 124.041 47.4762 124.1C47.4866 124.16 47.4992 124.219 47.5142 124.277C47.5294 124.336 47.5468 124.394 47.5665 124.451C47.586 124.509 47.6078 124.565 47.632 124.62C47.6561 124.676 47.6824 124.73 47.7107 124.784C47.7391 124.837 47.7696 124.889 47.8022 124.94C47.8347 124.991 47.8692 125.041 47.9057 125.089C47.9421 125.138 47.9803 125.184 48.0205 125.229C48.0606 125.275 48.1026 125.318 48.1462 125.36C48.1899 125.402 48.2351 125.442 48.282 125.481C48.3286 125.519 48.3768 125.555 48.4265 125.59C48.4761 125.624 48.5271 125.657 48.5795 125.687C48.6316 125.718 48.685 125.746 48.7395 125.773C48.794 125.799 48.8495 125.823 48.906 125.845C48.9623 125.867 49.0195 125.886 49.0775 125.904C49.1353 125.921 49.1938 125.936 49.253 125.949C49.3121 125.962 49.3717 125.972 49.4317 125.98C49.4917 125.988 49.5519 125.994 49.6122 125.997C49.6727 126 49.7331 126.001 49.7935 125.999C49.854 125.998 49.9143 125.994 49.9745 125.988C50.0346 125.981 50.0945 125.973 50.154 125.962C50.1908 125.955 50.2275 125.947 50.264 125.938C50.3005 125.93 50.3367 125.92 50.3727 125.91C50.4087 125.899 50.4444 125.888 50.4797 125.876C50.5152 125.864 50.5504 125.851 50.5852 125.837C50.62 125.823 50.6545 125.808 50.6885 125.793C50.7225 125.777 50.7561 125.761 50.7895 125.744C50.8228 125.726 50.8556 125.708 50.888 125.689C50.9205 125.671 50.9524 125.651 50.9837 125.631C51.0152 125.61 51.0461 125.589 51.0765 125.567C51.107 125.545 51.1368 125.523 51.166 125.499C51.1953 125.476 51.224 125.452 51.2522 125.427C51.2802 125.402 51.3076 125.377 51.3345 125.351C51.3615 125.325 51.3877 125.298 51.4132 125.27C51.4387 125.243 51.4636 125.215 51.4877 125.186C51.5119 125.158 51.5354 125.129 51.5582 125.099C51.5809 125.069 51.6029 125.039 51.6242 125.008C51.6454 124.977 51.6659 124.946 51.6857 124.914C51.7054 124.882 51.7243 124.85 51.7425 124.817C51.7605 124.784 51.7778 124.751 51.7945 124.717C51.811 124.684 51.8266 124.649 51.8415 124.615C51.8563 124.581 51.8702 124.546 51.8832 124.511C51.8964 124.476 51.9087 124.44 51.9202 124.404C51.9315 124.369 51.9421 124.333 51.9517 124.297C51.9614 124.261 51.9701 124.224 51.978 124.187C51.9858 124.151 51.9927 124.114 51.9987 124.077C52.0049 124.04 52.0101 124.003 52.0142 123.966C52.0184 123.928 52.0217 123.891 52.0242 123.854C52.0266 123.816 52.0281 123.779 52.0287 123.741C52.0292 123.704 52.0288 123.667 52.0275 123.629C52.0263 123.592 52.0241 123.554 52.021 123.517C52.018 123.48 52.014 123.442 52.009 123.405C52.004 123.368 51.9981 123.331 51.9915 123.294C51.9848 123.257 51.9771 123.221 51.9685 123.184C51.96 123.148 51.9506 123.111 51.9402 123.075C51.9299 123.039 51.9187 123.004 51.9067 122.968C51.8946 122.933 51.8816 122.898 51.868 122.863C51.8541 122.828 51.8395 122.793 51.824 122.759C51.8085 122.725 51.7921 122.691 51.775 122.658C51.7578 122.625 51.7399 122.592 51.7212 122.559C51.7026 122.527 51.683 122.495 51.6627 122.463C51.6424 122.432 51.6213 122.401 51.5995 122.37C51.5776 122.34 51.5551 122.31 51.5317 122.281C51.5084 122.251 51.4844 122.223 51.4597 122.194C51.4351 122.166 51.4096 122.139 51.3835 122.112C51.3575 122.085 51.3308 122.059 51.3035 122.033C51.2761 122.007 51.2481 121.983 51.2195 121.958C51.191 121.934 51.1619 121.911 51.1322 121.888C51.1024 121.865 51.0721 121.843 51.0412 121.821C51.0106 121.8 50.9793 121.78 50.9475 121.76C50.9156 121.74 50.8833 121.721 50.8505 121.703C50.8178 121.684 50.7846 121.667 50.751 121.65C50.7175 121.634 50.6835 121.618 50.649 121.603C50.6146 121.588 50.58 121.574 50.545 121.561C50.5098 121.548 50.4744 121.535 50.4387 121.524C50.403 121.512 50.3671 121.502 50.331 121.492C50.2948 121.482 50.2584 121.473 50.2217 121.465C50.1852 121.457 50.1485 121.45 50.1115 121.444C50.0745 121.438 50.0374 121.433 50.0002 121.429C49.9629 121.424 49.9256 121.421 49.8882 121.418C49.8509 121.416 49.8135 121.414 49.776 121.414C49.7385 121.413 49.701 121.413 49.6635 121.414C49.626 121.416 49.5886 121.418 49.5512 121.421C49.5139 121.424 49.4766 121.428 49.4395 121.432C49.4023 121.437 49.3653 121.443 49.3285 121.45ZM37.197 173.109L39.6332 173.114C39.7942 172.175 39.9415 171.242 40.042 170.295C39.2625 170.196 38.4765 170.172 37.6922 170.133C37.5422 171.128 37.3771 172.12 37.197 173.109ZM132.679 121.072C132.342 121.104 132.043 121.071 131.765 121.274C132.483 124.835 134.023 129.153 135.092 132.723C136.127 136.177 136.972 139.789 138.176 143.18C145.548 143.296 152.987 143.353 160.358 143.199C160.699 143.183 161.023 143.217 161.322 143.04C160.887 140.895 160.228 138.769 159.655 136.656C158.254 131.483 156.706 126.312 155.486 121.094C151.417 120.903 147.283 121.028 143.207 121.03C139.72 121.031 136.158 120.887 132.679 121.072ZM219.132 190.259C217.477 190.99 211.954 193.14 210.982 194.381L210.985 194.57L211.056 194.613C212.956 194.74 214.869 194.692 216.77 194.616C217.376 193.658 219.114 191.314 219.132 190.259ZM17.8627 192.925C17.7312 191.85 17.5435 190.81 17.3047 189.753C15.9897 189.782 14.665 189.795 13.3612 189.59C14.779 190.801 16.2347 192.003 17.8627 192.925ZM18.7097 193.038L18.943 193.221C19.4117 192.981 19.5922 192.131 19.7497 191.65C20.0902 190.611 20.9785 187.96 20.5535 186.911L20.4882 186.846C19.8372 187.735 19.2125 188.673 18.2505 189.252L18.049 189.374C18.227 190.604 18.4707 191.82 18.7097 193.038ZM4.69815 156.349L5.15887 156.544L5.33702 156.434C5.36104 156.103 5.29734 155.881 5.18917 155.564C5.12664 155.381 2.60287 149.407 2.60127 149.405C2.57337 149.372 2.53924 149.344 2.50822 149.313C1.67992 150.839 1.42254 152.601 1.23482 154.303C2.37902 154.986 3.506 155.757 4.69815 156.349ZM24.2072 187.271C23.8172 186.864 23.4795 186.494 23.1882 186.007C22.8445 187.922 22.3262 190.164 22.6022 192.105C22.788 191.988 22.7667 191.894 22.8312 191.692C23.2636 190.21 23.7222 188.736 24.2072 187.271ZM108.403 76.0792C108.355 78.6252 107.82 79.3017 106.411 81.2979C106.19 83.3707 106.313 86.0074 107.674 87.7059C108.765 89.0672 110.398 90.0602 112.144 90.2334C113.808 90.3984 115.565 89.8174 116.821 88.7219C117.712 87.9449 118.29 86.9819 118.833 85.9479C118.976 85.6757 119.135 85.2392 119.334 85.0122C119.409 84.9259 119.503 84.8729 119.609 84.8399C120.371 84.9797 120.877 85.0079 121.529 84.5372C122.115 84.1144 122.596 83.4262 122.669 82.6949C122.708 82.3022 122.641 81.9192 122.352 81.6272C122.022 81.2932 121.461 81.1877 121.007 81.2469C120.685 81.2892 120.504 81.4334 120.336 81.7089C120.23 81.8824 120.18 82.1462 120.16 82.3429L120.274 82.5429C120.693 82.5404 121.265 82.1527 121.595 82.2649C121.573 82.5382 121.51 82.7157 121.291 82.8997C120.833 83.2854 119.966 83.3594 119.386 83.4782L119.424 81.2754C118.816 80.2174 118.305 79.115 117.888 77.9682C115.432 78.2984 112.044 78.8407 109.919 77.2117C109.422 76.8307 108.961 76.3694 108.403 76.0792ZM199.251 131.555C197.722 131.649 196.194 131.644 194.663 131.648C194.547 133.482 194.353 135.308 194.08 137.126C188.821 137.123 183.499 137.104 178.249 136.799C175.858 136.66 173.339 135.824 170.959 136.092C170.779 136.113 170.601 136.14 170.423 136.175C170.246 136.21 170.071 136.253 169.897 136.303C169.723 136.352 169.551 136.409 169.382 136.473C169.213 136.538 169.047 136.609 168.884 136.687C168.721 136.765 168.562 136.849 168.406 136.941C168.25 137.032 168.098 137.13 167.95 137.234C167.802 137.338 167.659 137.449 167.521 137.565C167.382 137.681 167.249 137.802 167.12 137.93C166.81 138.234 166.517 138.557 166.223 138.878L166.403 138.873C168.833 138.78 172.245 136.359 174.831 137.717C174.999 137.937 175.09 137.966 175.086 138.252C174.492 138.562 173.294 138.179 172.619 138.134C170.004 137.959 167.644 139.422 166.373 141.646C169.018 140.102 171.228 139.355 174.329 139.654C174.476 139.918 174.511 139.862 174.43 140.18C173.953 140.401 173.329 140.314 172.806 140.34C169.9 140.487 167.864 140.999 166.764 143.953C166.679 144.181 166.684 144.209 166.715 144.466C167.096 144.484 167.324 144.343 167.609 144.093C168.145 143.623 168.587 143.002 169.153 142.579C170.53 141.554 172.871 141.806 174.507 141.881C175.144 141.91 175.765 141.988 176.392 142.1L176.278 142.204C175.7 142.729 174.396 143.357 174.23 144.106C174.45 144.458 174.67 144.575 175.078 144.665C176.647 145.008 181.566 144.726 183.445 144.727L192.606 144.743C194.13 144.741 195.736 144.831 197.251 144.684C198.062 144.606 198.995 144.394 199.676 143.931C201.122 142.95 201.619 141.049 201.879 139.421C202.284 136.877 202.727 134.21 202.911 131.643C201.701 131.585 200.459 131.46 199.251 131.555ZM51.3052 172.987C51.6872 172.853 51.7747 172.873 51.938 172.481C52.174 171.915 51.9712 170.892 51.9195 170.285C50.1336 170.259 48.3477 170.251 46.5617 170.26C46.2179 171.168 45.9036 172.086 45.619 173.014L51.3052 172.987ZM32.9147 157.542C32.1892 156.345 31.6947 155.018 30.9412 153.848C29.9917 155.187 29.3235 156.717 28.5962 158.185C29.6255 159.659 30.3317 161.333 31.0772 162.962L31.2495 163.098C31.7635 162.552 32.613 158.571 32.9147 157.542ZM105.622 83.8437L105.542 83.3399C105.315 83.2219 105.139 83.2049 104.891 83.1709C104.496 83.1169 104.234 83.0464 104.001 82.6962C103.973 82.6542 103.952 82.6084 103.927 82.5647L104.014 82.4172C104.469 82.3329 105.154 82.4649 105.499 82.2247C105.484 82.1787 105.467 82.1336 105.448 82.0894C105.429 82.0451 105.408 82.0018 105.384 81.9594C105.361 81.9173 105.336 81.8763 105.308 81.8364C105.281 81.7968 105.252 81.7584 105.221 81.7214C105.19 81.6844 105.157 81.6491 105.123 81.6154C105.088 81.5816 105.052 81.5496 105.015 81.5194C104.977 81.4891 104.938 81.4607 104.898 81.4342C104.857 81.4078 104.816 81.3834 104.773 81.3609C104.467 81.2012 103.899 81.2604 103.549 81.2659C103.127 81.5562 102.875 81.7917 102.779 82.3137C102.674 82.8829 103.033 83.4902 103.389 83.8999C103.828 84.4062 104.687 85.0944 105.389 85.1137C105.434 85.1149 105.478 85.1057 105.523 85.1014C105.704 84.7499 105.631 84.2397 105.622 83.8437ZM115.351 92.4949C113.671 92.3242 111.935 92.4267 110.245 92.3899C110.023 94.2142 109.861 96.1567 111.092 97.6987C111.43 98.1227 111.846 98.4287 112.4 98.4757C113.103 98.5357 113.981 98.0647 114.51 97.6309C115.637 96.1517 115.465 94.2419 115.351 92.4949ZM32.1542 163.514L33.5452 162.753C34.9207 162.051 36.2897 161.358 37.506 160.395C37.2245 158.35 36.5762 154.263 35.238 152.682C34.0447 156.211 32.8827 159.86 32.1542 163.514ZM170.905 144.51C171.472 143.926 172.372 143.341 172.794 142.686L172.774 142.536C172.546 142.519 172.33 142.506 172.1 142.512C171.39 142.81 170.667 143.454 170.281 144.119L170.278 144.385C170.536 144.529 170.618 144.514 170.905 144.51ZM124.893 206.743C124.888 204.319 124.918 201.895 124.984 199.471C122.417 199.475 119.813 199.403 117.251 199.53C117.185 202.492 117.14 205.454 117.113 208.416C118.437 208.605 119.698 208.839 120.86 207.99C121.571 207.471 121.686 206.752 122.683 206.704L124.893 206.743ZM207.019 190.609C207.191 191.97 207.406 193.309 207.804 194.624L209.989 194.637C209.335 193.325 208.148 191.561 207.019 190.609ZM57.0917 121.461C57.056 121.469 57.0205 121.477 56.9852 121.487C56.9501 121.497 56.9151 121.507 56.8802 121.518C56.8456 121.53 56.8111 121.542 56.777 121.555C56.7428 121.568 56.709 121.582 56.6755 121.596C56.642 121.611 56.6088 121.626 56.576 121.642C56.5433 121.659 56.511 121.676 56.479 121.693C56.447 121.711 56.4155 121.73 56.3845 121.749C56.3535 121.768 56.3229 121.788 56.2927 121.809C56.2627 121.83 56.2331 121.851 56.204 121.873C56.175 121.895 56.1465 121.918 56.1185 121.942C56.0905 121.965 56.0631 121.989 56.0365 122.014C56.0096 122.039 55.9834 122.065 55.9577 122.091C55.9322 122.117 55.9073 122.144 55.883 122.171C55.8588 122.198 55.8352 122.226 55.8122 122.254C55.7892 122.283 55.767 122.312 55.7455 122.341C55.724 122.371 55.7031 122.401 55.683 122.432C55.663 122.462 55.6436 122.493 55.625 122.524C55.6063 122.556 55.5885 122.588 55.5715 122.62C55.5543 122.653 55.538 122.685 55.5225 122.718C55.507 122.751 55.4923 122.785 55.4785 122.819C55.4646 122.853 55.4516 122.887 55.4392 122.921C55.4271 122.955 55.4156 122.99 55.405 123.025C55.3945 123.06 55.3847 123.095 55.3757 123.131C55.3669 123.166 55.3589 123.202 55.3517 123.238C55.3446 123.274 55.3383 123.31 55.333 123.346C55.3275 123.382 55.3229 123.418 55.3192 123.454C55.3156 123.491 55.3127 123.527 55.3107 123.564C55.3087 123.6 55.3076 123.637 55.3075 123.673C55.3073 123.71 55.3081 123.746 55.3097 123.783C55.3112 123.819 55.3136 123.856 55.317 123.892C55.3203 123.928 55.3246 123.965 55.3297 124.001C55.3347 124.037 55.3406 124.073 55.3475 124.109C55.3543 124.145 55.362 124.181 55.3705 124.216C55.379 124.252 55.3884 124.287 55.3987 124.322C55.4089 124.357 55.4199 124.392 55.4317 124.427C55.4437 124.461 55.4565 124.496 55.47 124.529C55.4836 124.563 55.4981 124.597 55.5132 124.63C55.5284 124.664 55.5443 124.696 55.561 124.729C55.5778 124.761 55.5953 124.793 55.6135 124.825C55.6318 124.857 55.6509 124.888 55.6707 124.919C55.6906 124.949 55.7111 124.98 55.7322 125.009C55.7536 125.039 55.7756 125.068 55.7982 125.097C55.8209 125.126 55.8442 125.154 55.8682 125.181C55.8922 125.209 55.9169 125.236 55.9422 125.262C55.9674 125.289 55.9933 125.314 56.02 125.339C56.0465 125.364 56.0736 125.389 56.1012 125.413C56.1291 125.437 56.1574 125.46 56.1862 125.482C56.2151 125.505 56.2444 125.526 56.2742 125.547C56.3041 125.568 56.3345 125.589 56.3655 125.608C56.3963 125.628 56.4276 125.647 56.4592 125.665C56.4911 125.683 56.5233 125.7 56.556 125.717C56.5885 125.733 56.6214 125.749 56.6547 125.764C56.6881 125.779 56.7218 125.793 56.756 125.806C56.79 125.82 56.8243 125.832 56.859 125.844C56.8936 125.855 56.9286 125.866 56.9637 125.876C56.9987 125.886 57.0341 125.895 57.0697 125.903C57.1054 125.912 57.1411 125.919 57.177 125.926C57.213 125.932 57.2491 125.938 57.2852 125.943C57.3216 125.948 57.3579 125.951 57.3942 125.954C57.4307 125.958 57.4672 125.96 57.5037 125.961C57.5402 125.962 57.5767 125.963 57.6132 125.962C57.6499 125.962 57.6865 125.961 57.723 125.958C57.7593 125.956 57.7956 125.953 57.832 125.949C57.8683 125.945 57.9045 125.94 57.9407 125.935C57.9907 125.927 58.0405 125.917 58.09 125.906C58.1395 125.895 58.1885 125.882 58.237 125.867C58.2855 125.853 58.3335 125.837 58.381 125.819C58.4285 125.801 58.4754 125.782 58.5217 125.761C58.5679 125.74 58.6133 125.718 58.658 125.694C58.7028 125.67 58.7467 125.645 58.7897 125.618C58.8327 125.591 58.8748 125.563 58.916 125.533C58.9571 125.504 58.9972 125.473 59.0362 125.441C59.0754 125.408 59.1134 125.375 59.1502 125.34C59.1871 125.305 59.2226 125.269 59.257 125.232C59.2915 125.195 59.3246 125.156 59.3565 125.117C59.3883 125.078 59.4189 125.037 59.4482 124.996C59.4774 124.954 59.5051 124.912 59.5315 124.869C59.5578 124.825 59.5826 124.781 59.606 124.736C59.6295 124.691 59.6514 124.646 59.6717 124.599C59.6921 124.553 59.7108 124.506 59.728 124.458C59.7451 124.41 59.7607 124.362 59.7747 124.313C59.7887 124.265 59.8011 124.215 59.8117 124.166C59.8226 124.116 59.8316 124.067 59.839 124.016C59.8463 123.966 59.852 123.916 59.856 123.865C59.86 123.815 59.8623 123.764 59.863 123.713C59.8636 123.663 59.8626 123.612 59.86 123.561C59.8571 123.511 59.8527 123.461 59.8467 123.41C59.8406 123.36 59.8327 123.31 59.8232 123.26C59.8139 123.21 59.8028 123.161 59.79 123.112C59.7773 123.063 59.763 123.014 59.747 122.966C59.731 122.918 59.7134 122.87 59.6942 122.823C59.6751 122.776 59.6543 122.73 59.632 122.685C59.6098 122.639 59.5861 122.594 59.5607 122.55C59.5356 122.506 59.5089 122.463 59.4807 122.421C59.4525 122.379 59.423 122.338 59.3922 122.298C59.3614 122.257 59.3292 122.218 59.2957 122.18C59.2622 122.142 59.2275 122.105 59.1915 122.069C59.1556 122.034 59.1186 121.999 59.0802 121.966C59.0421 121.933 59.0028 121.901 58.9625 121.87C58.922 121.839 58.8806 121.81 58.8382 121.782C58.7959 121.754 58.7527 121.728 58.7087 121.703C58.6646 121.678 58.6196 121.654 58.574 121.632C58.5283 121.61 58.482 121.59 58.435 121.571C58.388 121.552 58.3404 121.535 58.2922 121.519C58.2439 121.503 58.1952 121.489 58.1462 121.477C58.0971 121.464 58.0476 121.453 57.9977 121.444C57.9477 121.435 57.8976 121.428 57.8472 121.422C57.7969 121.416 57.7464 121.412 57.6957 121.409C57.6452 121.407 57.5946 121.406 57.544 121.407C57.4931 121.408 57.4425 121.411 57.392 121.415C57.3415 121.419 57.2912 121.425 57.2412 121.433C57.1911 121.44 57.1412 121.45 57.0917 121.461ZM211.777 184.748C211.569 186.249 210.535 192.079 211.186 193.084C214.08 191.803 216.985 190.464 219.842 189.104C220.606 187.546 223.275 181.253 222.981 179.819L222.899 179.74C219.201 181.431 215.425 182.945 211.777 184.748ZM190.304 149.612C191.688 148.417 191.485 147.129 191.753 145.503L83.8027 145.263L51.448 145.267L42.1552 145.295C40.639 145.305 38.9205 145.473 37.4235 145.277C37.379 146.893 37.4084 148.508 37.5117 150.122C46.1772 150.22 54.835 150.119 63.5005 150.127L133.017 150.063L169.529 150.149C173.261 150.176 176.992 150.175 180.724 150.146C182.71 150.15 184.703 150.248 186.688 150.192C187.892 150.158 189.193 150.129 190.304 149.612ZM219.654 156.848C218.19 159.772 217.135 162.625 215.975 165.666L218.679 164.498C220.079 163.874 221.535 163.216 222.837 162.404C222.103 160.294 221.48 158.286 219.654 156.848ZM41.0632 126.063C41.1014 126.062 41.1395 126.06 41.1775 126.057C41.2155 126.054 41.2534 126.05 41.2912 126.045C41.3291 126.04 41.3668 126.034 41.4045 126.027C41.442 126.02 41.4793 126.012 41.5165 126.004C41.5536 125.995 41.5906 125.986 41.6272 125.975C41.6639 125.965 41.7003 125.953 41.7365 125.941C41.7726 125.929 41.8085 125.916 41.844 125.902C41.8795 125.888 41.9146 125.873 41.9492 125.857C41.9841 125.841 42.0184 125.825 42.0522 125.807C42.0862 125.79 42.1197 125.771 42.1527 125.752C42.1857 125.733 42.2182 125.713 42.2502 125.692C42.2824 125.672 42.314 125.65 42.345 125.628C42.376 125.606 42.4064 125.583 42.4362 125.559C42.4661 125.535 42.4952 125.511 42.5237 125.485C42.5524 125.46 42.5804 125.434 42.6077 125.408C42.6352 125.381 42.662 125.354 42.688 125.326C42.714 125.298 42.7392 125.269 42.7637 125.24C42.7884 125.211 42.8123 125.181 42.8355 125.151C42.8585 125.121 42.8808 125.09 42.9025 125.058C42.9241 125.027 42.945 124.995 42.965 124.962C42.985 124.93 43.0041 124.897 43.0225 124.863C43.041 124.83 43.0586 124.796 43.0752 124.762C43.0919 124.728 43.1078 124.693 43.123 124.658C43.138 124.623 43.1521 124.587 43.1652 124.552C43.1786 124.516 43.191 124.48 43.2025 124.443C43.214 124.407 43.2246 124.37 43.2342 124.333C43.2439 124.296 43.2526 124.259 43.2605 124.222C43.2683 124.185 43.2752 124.147 43.2812 124.109C43.2872 124.072 43.2922 124.034 43.2962 123.996C43.3004 123.958 43.3036 123.92 43.3057 123.882C43.3081 123.844 43.3094 123.806 43.3097 123.768C43.3101 123.729 43.3095 123.691 43.308 123.653C43.3065 123.615 43.304 123.577 43.3005 123.539C43.2971 123.501 43.2928 123.463 43.2875 123.425C43.2823 123.388 43.2761 123.35 43.269 123.312C43.2618 123.275 43.2537 123.238 43.2447 123.2C43.2357 123.163 43.2258 123.127 43.215 123.09C43.2043 123.053 43.1926 123.017 43.18 122.981C43.1675 122.945 43.154 122.909 43.1395 122.874C43.1251 122.839 43.11 122.804 43.094 122.769C43.0778 122.734 43.0609 122.7 43.0432 122.666C43.0254 122.633 43.0068 122.599 42.9875 122.566C42.968 122.534 42.9477 122.501 42.9267 122.469C42.9057 122.438 42.884 122.406 42.8615 122.375C42.8388 122.345 42.8155 122.315 42.7915 122.285C42.7675 122.255 42.7427 122.226 42.7172 122.198C42.6917 122.169 42.6656 122.142 42.6387 122.114C42.6119 122.087 42.5844 122.061 42.5562 122.035C42.5281 122.01 42.4992 121.985 42.4697 121.96C42.4404 121.936 42.4105 121.912 42.38 121.889C42.3493 121.866 42.3181 121.844 42.2865 121.823C42.255 121.802 42.2229 121.781 42.1902 121.761C42.1576 121.742 42.1244 121.723 42.0907 121.705C42.057 121.687 42.0231 121.669 41.9887 121.653C41.9542 121.637 41.9194 121.621 41.8842 121.606C41.8489 121.592 41.8133 121.578 41.7775 121.565C41.7416 121.552 41.7055 121.54 41.669 121.529C41.6325 121.518 41.5957 121.507 41.5587 121.498C41.5217 121.489 41.4845 121.48 41.447 121.473C41.4096 121.465 41.3721 121.459 41.3342 121.453C41.2966 121.448 41.2587 121.443 41.2207 121.439C41.1827 121.435 41.1446 121.432 41.1065 121.43C41.0685 121.429 41.0304 121.428 40.9922 121.428C40.9541 121.428 40.9159 121.429 40.8777 121.43C40.8069 121.434 40.7363 121.441 40.666 121.451C40.5956 121.461 40.526 121.474 40.457 121.49C40.3878 121.507 40.3196 121.526 40.2525 121.549C40.1851 121.571 40.1191 121.597 40.0542 121.626C39.9892 121.654 39.9257 121.686 39.8637 121.72C39.8017 121.755 39.7414 121.792 39.6827 121.832C39.6242 121.872 39.5676 121.915 39.513 121.96C39.4583 122.006 39.4058 122.053 39.3555 122.103C39.3146 122.144 39.2753 122.186 39.2375 122.23C39.1998 122.274 39.1637 122.319 39.1292 122.365C39.0949 122.412 39.0623 122.459 39.0315 122.508C39.0006 122.557 38.9717 122.606 38.9447 122.657C38.9175 122.708 38.8924 122.76 38.8692 122.813C38.8459 122.866 38.8246 122.92 38.8055 122.974C38.7863 123.029 38.7691 123.084 38.754 123.139C38.739 123.195 38.726 123.251 38.715 123.308C38.7041 123.365 38.6954 123.422 38.6887 123.479C38.6821 123.536 38.6776 123.594 38.6752 123.651C38.6729 123.709 38.6726 123.767 38.6745 123.824C38.6765 123.882 38.6806 123.94 38.687 123.997C38.6931 124.054 38.7015 124.112 38.712 124.168C38.7225 124.225 38.7351 124.281 38.7497 124.337C38.7645 124.393 38.7814 124.448 38.8002 124.503C38.8191 124.557 38.8399 124.611 38.8627 124.664C38.8856 124.717 38.9104 124.769 38.9372 124.82C38.9639 124.871 38.9925 124.921 39.023 124.97C39.0535 125.019 39.0857 125.067 39.1197 125.114C39.1539 125.16 39.1896 125.206 39.227 125.25C39.2645 125.294 39.3036 125.336 39.3442 125.377C39.3847 125.418 39.4268 125.457 39.4705 125.495C39.514 125.533 39.5589 125.569 39.6052 125.604C39.6514 125.638 39.6989 125.671 39.7477 125.702C39.7964 125.733 39.8461 125.762 39.897 125.789C39.948 125.817 39.9998 125.842 40.0525 125.865C40.1053 125.889 40.1589 125.91 40.2132 125.929C40.2676 125.949 40.3226 125.966 40.3782 125.981C40.4339 125.997 40.4901 126.01 40.5467 126.021C40.6034 126.032 40.6604 126.041 40.7177 126.048C40.7751 126.055 40.8326 126.059 40.8902 126.062C40.9479 126.064 41.0056 126.065 41.0632 126.063ZM212.675 160.608C213.38 161.901 214.104 163.183 214.845 164.456C214.989 164.692 215.047 164.888 215.305 165.006C215.941 163.568 216.305 161.997 216.914 160.54C217.473 159.201 218.304 157.926 218.732 156.544L218.67 156.408C218.268 156.345 217.97 156.341 217.566 156.388C215.448 157.222 213.924 158.723 212.675 160.608ZM75.3105 83.2812C75.306 80.5304 75.151 77.6552 75.3565 74.9157C71.8252 74.9452 68.2885 74.9214 64.757 74.8954C64.7807 77.8057 64.803 80.7194 64.78 83.6297C66.2217 83.6222 74.7255 83.7949 75.275 83.4602L75.3105 83.2812ZM114.544 162.845C114.091 166.583 114.205 170.476 114.102 174.242C113.874 182.525 113.798 190.836 113.473 199.112L112.87 200.041C112.878 202.619 112.981 209.943 114.105 212.167C114.232 212.25 114.348 212.342 114.492 212.392C114.989 212.377 115.474 212.417 115.903 212.133C116.557 211.395 116.55 201.503 116.461 199.979L116.451 199.834L115.643 199.05L115.129 178.591C115.029 173.945 115.084 169.234 114.833 164.595C114.809 164.157 114.823 163.151 114.544 162.845ZM62.9427 74.4404C60.0067 74.5062 57.07 74.4619 54.1335 74.4987C54.0886 77.5415 54.0895 80.5843 54.136 83.6272L55.9712 83.6294C58.675 83.8312 61.3507 83.5772 64.0522 83.6257C64.057 80.5772 64.1172 77.5147 64.0195 74.4684L62.9427 74.4404ZM98.7005 121.252L83.6282 121.271C80.9615 121.269 78.2385 121.152 75.5775 121.298C75.2805 121.409 75.2227 121.403 75.082 121.705C74.3502 123.276 73.6242 127.042 73.1367 128.951C71.9307 133.674 70.627 138.387 69.4795 143.122C77.124 143.143 84.7835 143.341 92.426 143.209C92.836 143.2 93.3327 143.252 93.681 143.016C94.361 141.256 94.6757 139.196 95.1167 137.355C96.3985 132.005 97.455 126.608 98.7005 121.252ZM54.1292 64.4907C54.0832 67.5779 53.9552 70.6527 54.1235 73.7404C57.369 73.5759 60.622 73.8212 63.8722 73.6137C64.2095 73.2092 64.0195 65.5344 64.0155 64.4282C60.7217 64.4869 57.42 64.3699 54.1292 64.4907ZM223.84 170.118C220.517 171.751 217.065 173.299 213.586 174.566C213.102 176.373 211.644 181.953 211.975 183.581L212.166 183.628C215.783 181.824 219.613 180.387 223.285 178.676C223.749 176.258 224.568 172.661 224.123 170.283C223.958 170.097 224.057 170.143 223.84 170.118ZM96.8342 64.2507C96.678 67.3847 96.7265 70.5634 96.7932 73.7004C99.2132 73.7234 101.633 73.7305 104.053 73.7217C104.49 73.0557 104.957 72.4674 105.487 71.8732C106.152 71.3133 106.821 70.7578 107.493 70.2064C107.525 68.2253 107.524 66.2442 107.49 64.2632C103.938 64.234 100.386 64.2298 96.8342 64.2507ZM76.017 84.3977C76.0042 85.9729 75.619 93.2792 76.292 94.2922C76.5947 94.4469 76.7407 94.4839 77.0757 94.3802C77.978 94.1012 78.8932 93.3469 79.8755 93.7752C81.113 94.3149 82.2125 96.2814 83.085 97.3127C83.2365 96.8862 83.3352 96.5409 83.6722 96.2269C83.9612 96.1379 84.0802 96.1067 84.3765 96.2407C84.4742 96.2852 84.5962 96.3824 84.6842 96.4484L85.732 97.6667C85.73 93.2692 85.9165 88.7867 85.6967 84.3997L76.017 84.3977ZM64.8137 42.3177C64.5237 45.8184 64.7415 49.4924 64.7432 53.0092C68.0827 53.0047 71.4745 52.8684 74.8087 52.9944C74.7455 49.4537 74.8402 45.9087 74.756 42.3697C72.3782 42.2212 69.973 42.2992 67.5912 42.3102C66.6812 42.3142 65.716 42.3912 64.8137 42.3177ZM93.638 110.485C95.1452 106.861 96.4865 102.736 98.8727 99.5759C100.977 96.9174 103.372 95.2087 106.798 94.7964C107.648 94.6942 108.531 94.6479 109.386 94.6957C109.438 93.3222 109.835 90.8757 108.845 89.7829C108.431 89.3259 107.896 88.9867 107.453 88.5577C106.704 87.8322 106.205 86.7474 105.828 85.7884C104.524 85.5947 103.594 85.3022 102.57 84.4222C97.1837 84.5977 91.775 84.3462 86.384 84.4239L86.304 93.0064C86.2962 94.6444 86.1717 96.3947 86.4317 98.0162C86.864 100.71 88.728 101.447 87.7265 104.648C89.5835 106.639 91.451 108.861 93.638 110.485ZM158.378 123.808C157.95 123.81 157.533 123.764 157.148 123.981C157.075 124.788 160.009 134.848 160.444 136.656C162.728 136.549 165.018 136.685 167.301 136.602C167.378 136.098 167.443 135.59 167.536 135.089C168.256 131.255 169.237 127.49 170.48 123.792C166.449 123.775 162.408 123.717 158.378 123.808ZM173.151 199.467C172.455 199.536 171.758 199.621 171.059 199.656C172.034 203.844 172.98 208.235 173.18 212.542L187.782 212.498C189.337 212.492 190.909 212.531 192.462 212.46C189.754 203.099 186.965 193.777 184.397 184.375C183.427 180.824 182.364 177.271 181.549 173.683C178.846 173.748 176.055 173.533 173.37 173.744C172.434 176.61 170.98 180.133 170.597 183.084C170.322 185.202 171.058 187.647 171.469 189.723C172.105 192.938 172.895 196.196 173.151 199.467ZM129.274 121.394C128.769 124.651 128.924 128.161 128.822 131.461L128.289 144.74C130.957 144.702 133.626 144.777 136.293 144.732C136.688 144.724 137.149 144.77 137.508 144.606C137.546 142.412 135.618 137.275 134.927 134.965C133.576 130.451 132.157 125.895 130.994 121.33L129.274 121.394ZM37.05 173.954C34.9087 182.092 31.9812 188.885 24.583 193.605C27.7452 193.739 30.9075 193.646 34.0685 193.744C32.7186 198.099 31.4848 202.487 30.367 206.908C29.8655 208.749 29.3402 210.592 28.9525 212.461C29.814 212.472 30.688 212.513 31.548 212.47C33.4775 204.83 34.7565 197.022 36.304 189.297C37.3165 184.244 38.7402 179.09 39.4392 173.997C38.6437 173.982 37.8452 173.95 37.05 173.954ZM49.185 96.4372C47.9872 98.4727 46.6345 100.049 44.388 100.942C44.0252 101.086 43.0622 101.336 42.7987 101.57C42.5402 101.799 42.656 102.728 42.312 103.09C42.0297 103.114 41.9182 103.074 41.7077 102.863C41.177 102.333 41.3685 101.281 40.3832 101.149C40.071 101.106 39.8392 101.158 39.544 101.254L39.6055 101.343C39.648 101.348 39.6905 101.351 39.7327 101.356C40.2345 101.413 40.5807 101.503 40.9135 101.903C41.2102 102.259 41.408 102.836 41.3412 103.302C41.3295 103.385 41.3055 103.465 41.2875 103.546L41.1112 103.569C40.7607 103.175 40.592 102.76 40.4177 102.267C40.124 102.104 39.8987 101.985 39.5455 102.062C39.0797 102.163 38.7072 102.534 38.5017 102.95C38.2887 103.381 38.2497 103.841 38.4042 104.297C38.5587 104.754 39.0087 105.08 39.444 105.237C40.299 105.546 41.172 105.36 42.0402 105.204C42.2656 105.943 42.4673 106.689 42.6455 107.44C43.2492 108.951 44.6175 110.081 46.0885 110.715C47.7342 111.424 49.616 111.644 51.319 110.99C52.711 110.456 53.7335 109.383 54.3115 108.021C55.2655 105.772 54.9362 103.059 54.5587 100.718C52.967 99.2042 50.894 97.9934 49.185 96.4372ZM87.2345 74.4277L86.5887 74.5264C86.1937 75.5419 86.3912 82.1214 86.4467 83.6299C88.0995 83.6532 101.655 83.8877 102.099 83.5014L102.094 83.3447C102.058 83.0199 102.002 82.6614 102.059 82.3377C102.22 81.4169 102.644 80.5289 102.815 79.5897C103.127 77.8894 102.978 76.1394 103.61 74.4982C100.141 74.41 96.6721 74.3768 93.2025 74.3984C91.2235 74.3994 89.2097 74.3292 87.2345 74.4277ZM79.039 94.2954C79.044 94.3449 79.0482 94.3947 79.0542 94.4442C79.3387 96.8779 81.7252 98.2499 82.1112 99.8972L81.9265 100.079C81.4535 100.046 81.1242 99.6617 80.83 99.3244C79.9977 98.3699 78.5382 95.5517 77.511 95.1142C77.388 95.5747 77.7237 96.1302 77.9497 96.5279C78.5482 97.5802 80.3685 99.0244 80.1162 100.213L79.9082 99.9034L80.192 99.8349L80.1927 100.165C80.019 100.255 80.042 100.295 79.8842 100.234C79.267 99.9957 77.4142 97.0707 76.2555 96.1827L76.3127 96.3504C76.8245 97.8022 79.2927 99.9932 78.9645 101.028C78.8255 101.09 78.6825 101.216 78.534 101.14C78.3425 101.043 76.2082 98.2357 75.4392 97.5854C77.0717 101.204 80.1722 103.991 82.4967 107.157C84.9997 110.568 86.8577 114.218 89.7977 117.326C90.8157 118.358 91.8222 119.388 92.7732 120.482C94.4657 120.482 96.1645 120.511 97.8562 120.465C98.498 118.894 99.2962 117.49 100.192 116.052C97.263 114.248 94.5092 112.335 91.962 110.015C90.125 108.343 88.4355 106.519 86.6267 104.817C87.2512 103.49 87.2535 102.439 86.7497 101.038C86.318 99.8367 85.2957 98.0507 84.1842 97.4127L83.9152 97.4219C83.626 97.9634 83.7877 98.6804 83.9862 99.2457C84.1542 99.7242 84.4277 100.192 84.6407 100.655L84.4632 100.717C83.9512 100.9 83.4665 101.075 83.055 101.446C82.4817 101.963 81.7272 103.73 81.0357 103.83C80.837 103.603 80.76 103.561 80.7892 103.24C80.897 102.049 82.6205 100.628 83.457 99.9067C82.626 98.1684 80.9597 94.9849 79.039 94.2954ZM151.796 95.4999C150.283 96.7154 148.592 98.0539 147.343 99.5409C146.767 100.226 146.346 101.051 145.765 101.721C145.565 101.951 145.4 101.985 145.11 102.007L144.992 101.888C145.066 101.176 145.409 100.508 145.73 99.8759L145.653 99.7272C145.447 99.3202 145.223 98.9694 145.361 98.5004C145.519 97.9599 145.935 97.5492 146.028 96.9734C145.725 96.8917 145.573 96.9212 145.291 97.0707C143.968 97.7744 142.841 99.9622 141.924 101.144C140.216 103.344 138.409 105.469 136.675 107.649C135.456 109.182 134.27 111.038 132.807 112.325C132.573 111.958 132.329 111.595 132.134 111.206C130.16 112.361 128.163 113.532 126.247 114.779C126.964 116.066 127.751 117.622 128.758 118.702C129.171 119.238 129.567 119.775 130.063 120.239C131.615 120.332 133.144 120.403 134.695 120.228C137.327 117.219 139.696 113.895 142.066 110.677C143.197 109.141 144.274 107.465 145.575 106.071C147.175 104.357 149.383 103.386 151.056 101.772C151.409 101.432 151.803 101.095 151.844 100.583C151.604 100.339 151.621 100.398 151.303 100.375C149.998 100.95 148.898 102.535 147.498 102.765L147.249 102.664C147.213 102.369 147.218 102.238 147.431 101.99C147.71 101.666 148.419 101.452 148.803 101.226C148.221 100.903 147.597 100.586 147.38 99.9129L147.461 99.7092C147.505 99.7114 147.549 99.7147 147.593 99.7159C148.807 99.7482 150.671 97.9359 151.539 97.0792C151.825 96.7977 152.075 96.5477 152.225 96.1717C152.179 95.8379 152.157 95.7797 151.885 95.5529C151.858 95.5309 151.826 95.5177 151.796 95.4999ZM85.7245 83.6282C85.4592 81.4872 85.7382 77.5514 85.7402 75.1817L85.7237 55.6287L76.137 55.6462C75.9282 60.5999 76.0227 65.5942 76.0252 70.5529C76.0275 74.9044 75.9175 79.2764 76.04 83.6252C79.2665 83.6489 82.5015 83.5777 85.7245 83.6282ZM158.44 155.391C155.509 156.116 153.518 157.421 151.936 160.049C149.603 163.926 150.509 167.422 151.502 171.535L153.006 177.801C153.349 179.189 153.78 180.582 153.857 182.017C154.025 185.136 153.317 188.901 152.926 192.03C152.616 194.514 152.41 197.081 151.956 199.541C150.998 199.617 150.048 199.653 149.087 199.665C149.097 200.951 149.323 202.225 149.497 203.496C149.904 206.469 150.393 209.523 150.124 212.528L153.845 212.525C154.025 211.584 154.198 210.756 154.698 209.921C156.878 207.372 159.577 206.404 162.324 204.655C162.025 203.02 161.789 201.3 161.353 199.699C160.616 199.649 159.872 199.621 159.14 199.526C158.044 197.05 157.635 194.165 157.039 191.531L154.102 178.692C153.487 176.108 152.858 173.527 152.215 170.95C151.868 169.555 151.387 168.076 151.22 166.649C151.033 165.049 151.212 163.476 151.8 161.974C152.871 159.238 154.714 157.702 157.309 156.472C157.765 156.256 158.64 156.017 158.689 155.457C158.478 155.381 158.564 155.382 158.44 155.391ZM185.954 95.1134C184.219 95.8059 182.979 95.3332 181.308 95.6719C180.11 95.9144 179.026 96.5447 177.845 96.8569C177.599 99.2517 177.376 103.218 177.959 105.494C178.016 105.712 178.084 105.926 178.163 106.136C178.243 106.346 178.333 106.552 178.433 106.753C178.534 106.954 178.644 107.149 178.765 107.338C178.886 107.528 179.016 107.711 179.156 107.887C180.219 109.242 181.838 110.27 183.57 110.452C185.546 110.66 187.232 109.585 188.88 108.665C187.789 110.97 185.642 112.023 183.417 113.005C183.354 113.7 183.654 114.541 184.101 115.075C184.765 115.869 185.943 116.28 186.952 116.315C188.229 116.359 189.641 115.852 190.537 114.929C191.599 113.834 191.559 112.117 191.498 110.691C191.38 107.961 190.961 105.226 190.618 102.517C191.558 102.385 192.325 102.32 192.947 101.512C193.277 101.082 193.446 100.535 193.334 99.9967C193.261 99.6502 193.08 99.3362 192.789 99.1282C192.433 98.8742 191.983 98.8349 191.574 98.9582C191.126 99.0929 190.745 99.4487 190.405 99.7582C188.83 98.7597 187.226 96.7772 186.219 95.2027L185.954 95.1134ZM75.5322 42.3824C75.5042 45.2146 75.5044 48.0468 75.5327 50.8789C75.5395 52.1857 75.6417 53.5752 75.5365 54.8754C81.3125 54.8069 87.0955 54.8769 92.8727 54.8764C92.9202 50.7149 92.9967 46.5574 92.8727 42.3957L75.5322 42.3824ZM64.7452 53.7529C64.747 60.5302 64.5902 67.3442 64.7762 74.1164C68.2147 74.4742 71.8842 74.3377 75.338 74.1819C75.4522 71.7364 75.3735 69.2972 75.3975 66.8512C75.4297 63.5517 75.531 60.2494 75.327 56.9517C75.26 55.8642 74.8107 54.8712 74.7505 53.7654C71.4217 53.7309 68.0682 53.8467 64.7452 53.7529ZM94.312 111.179C96.3782 112.704 98.5185 114.295 100.852 115.396C100.796 114.02 100.345 108.633 101.001 107.738L101.178 107.729C101.748 108.403 101.739 117.329 101.756 118.873L121.469 118.826L124.453 118.835C124.717 116.627 124.896 108.21 125.854 106.978L126.026 107.067C126.692 109.224 125.872 112.053 125.845 114.299C127.846 113.061 129.825 111.702 131.867 110.542C130.981 108.683 130.06 106.84 129.104 105.015C127.352 101.623 125.408 97.4642 121.54 96.1169C119.841 95.5249 118.048 95.4864 116.269 95.3917C115.95 96.7204 115.569 98.0217 114.302 98.7602C114.213 98.8115 114.121 98.8583 114.027 98.9004C113.933 98.9426 113.837 98.9799 113.739 99.0124C113.642 99.0449 113.543 99.0724 113.442 99.0949C113.342 99.1174 113.24 99.1348 113.138 99.1472C113.036 99.1595 112.933 99.1667 112.83 99.1687C112.727 99.1707 112.625 99.1676 112.522 99.1594C112.419 99.1511 112.317 99.1376 112.216 99.1189C112.115 99.1004 112.015 99.0768 111.916 99.0482C111.022 98.7842 110.294 98.0869 109.881 97.2629C109.592 96.6872 109.416 96.0004 109.243 95.3822C108.884 95.3937 108.498 95.3794 108.143 95.4204C104.813 95.7499 102.189 96.6759 100.011 99.3232C97.4532 102.433 95.747 107.415 94.312 111.179ZM187.245 173.787C187.672 177.351 188.437 180.903 189.068 184.438L191.892 199.498C192.411 202.143 193.013 204.775 193.471 207.431C193.763 209.123 193.888 210.831 194.152 212.521C196.93 212.521 199.721 212.572 202.498 212.507C202.142 210.907 201.763 209.312 201.361 207.723C200.499 204.496 198.653 198.095 198.461 195.063L198.47 195.074C198.544 194.897 198.54 194.856 198.697 194.732C200.427 194.376 202.58 194.63 204.352 194.652C203.132 190.883 201.972 187.096 200.87 183.291C200.164 180.896 199.576 178.326 198.571 176.039C198.216 175.231 197.779 174.566 197.22 173.887C194.424 173.537 190.152 173.707 187.245 173.787ZM111.197 1.30193C107.661 1.67323 104.523 3.13228 102.26 5.94093C102.126 6.10709 101.996 6.27651 101.871 6.44917C101.745 6.62184 101.624 6.79751 101.506 6.97617C101.389 7.15484 101.277 7.33626 101.169 7.52043C101.061 7.70459 100.958 7.89134 100.859 8.08067C100.76 8.27001 100.666 8.46167 100.576 8.65567C100.487 8.84968 100.403 9.04576 100.323 9.24392C100.243 9.44209 100.169 9.64209 100.099 9.84392C100.029 10.0459 99.9646 10.2494 99.905 10.4544C99.8453 10.6594 99.7908 10.8658 99.7415 11.0737C99.692 11.2815 99.6477 11.4903 99.6087 11.7002C99.5696 11.9102 99.5356 12.121 99.507 12.3327C99.4783 12.5443 99.4549 12.7566 99.4367 12.9694C99.4186 13.1821 99.4057 13.3952 99.3982 13.6087C99.3906 13.8222 99.3882 14.0357 99.3912 14.2492C99.3942 14.4627 99.4025 14.676 99.416 14.8892C99.4295 15.1023 99.4482 15.315 99.4722 15.5272C99.8242 18.5579 101.619 20.6947 102.738 23.4139C103.998 26.4747 104.142 29.8144 104.271 33.0792C106.774 33.0574 109.298 32.9652 111.799 33.0759L111.75 21.5444C110.46 21.3152 109.189 20.8119 108.401 19.7012C108.345 19.6235 108.292 19.5432 108.244 19.4602C108.196 19.3773 108.152 19.2923 108.112 19.2049C108.072 19.1176 108.036 19.0285 108.005 18.9377C107.974 18.847 107.948 18.7549 107.926 18.6614C107.904 18.5679 107.887 18.4737 107.874 18.3787C107.862 18.2835 107.854 18.1879 107.851 18.0919C107.848 17.9961 107.849 17.9003 107.856 17.8044C107.862 17.7088 107.874 17.6136 107.889 17.5189C108.017 16.7984 108.425 16.1509 109.054 15.7679C109.491 15.5014 110.041 15.3947 110.538 15.5452C111.202 15.7462 111.654 16.3242 111.944 16.9259C112.482 18.0432 112.535 19.1717 112.546 20.3817L112.618 20.6307C112.957 20.6694 113.301 20.4379 113.562 20.2279C113.863 19.9852 114.145 19.7082 114.422 19.4389C115.091 18.7907 115.478 16.8467 116.285 16.5469C116.502 16.9952 116.311 17.6612 116.155 18.1054C115.632 19.6029 114.479 20.6947 113.058 21.3387C112.881 21.4187 112.704 21.4922 112.521 21.5579C112.427 25.3811 112.435 29.2041 112.546 33.0269C114.946 33.0228 117.346 33.0388 119.745 33.0749C120.058 30.5292 119.962 27.8222 120.739 25.3544C121.445 23.1097 122.736 21.1677 123.672 19.0302C123.729 18.8998 123.783 18.7686 123.836 18.6364C123.888 18.5043 123.939 18.3713 123.987 18.2374C124.035 18.1036 124.081 17.969 124.124 17.8337C124.168 17.6983 124.209 17.5623 124.248 17.4257C124.287 17.2888 124.324 17.1514 124.358 17.0134C124.393 16.8754 124.425 16.7369 124.455 16.5979C124.484 16.4589 124.512 16.3194 124.537 16.1794C124.562 16.0394 124.585 15.8991 124.605 15.7584C124.626 15.6176 124.644 15.4765 124.659 15.3352C124.675 15.1938 124.688 15.0523 124.699 14.9107C124.71 14.7688 124.719 14.6268 124.725 14.4847C124.731 14.3427 124.735 14.2006 124.736 14.0584C124.737 13.9163 124.737 13.7741 124.733 13.6319C124.73 13.4898 124.724 13.3477 124.716 13.2057C124.708 13.0637 124.697 12.9218 124.684 12.7802C124.672 12.6387 124.656 12.4973 124.639 12.3562C124.621 12.215 124.601 12.0743 124.579 11.9339C124.556 11.7934 124.532 11.6533 124.505 11.5137C124.478 11.3742 124.448 11.2351 124.417 11.0964C124.385 10.9578 124.351 10.8197 124.315 10.6822C124.278 10.5447 124.24 10.4078 124.199 10.2717C124.158 10.1355 124.115 10 124.069 9.86517C124.024 9.73051 123.976 9.59659 123.926 9.46342C123.877 9.33026 123.824 9.19792 123.77 9.06642C123.716 8.93509 123.659 8.80467 123.6 8.67517C123.542 8.54567 123.481 8.41717 123.418 8.28967C123.355 8.16217 123.29 8.03576 123.222 7.91042C123.155 7.78526 123.086 7.66118 123.014 7.53818C122.943 7.41517 122.869 7.29343 122.794 7.17293C122.718 7.05243 122.641 6.93326 122.561 6.81543C122.482 6.69743 122.401 6.58084 122.317 6.46567C122.234 6.35051 122.148 6.23676 122.061 6.12443C120.054 3.54153 116.984 1.73477 113.727 1.34652C112.885 1.25401 112.042 1.23914 111.197 1.30193Z" fill="black"/>
</svg>
